<svg viewBox="0 0 600 400" xmlns="http://www.w3.org/2000/svg">
<g transform="translate(72, 364)">
<g>
<g>
<circle cx="0" cy="-170" fill="#000000" r="2"/>
<circle cx="0.48" cy="-170" fill="#000000" r="2"/>
<circle cx="0.96" cy="-170" fill="#000000" r="2"/>
<circle cx="1.44" cy="-170" fill="#000000" r="2"/>
<circle cx="1.92" cy="-170" fill="#000000" r="2"/>
<circle cx="2.4" cy="-170" fill="#000000" r="2"/>
<circle cx="2.88" cy="-170" fill="#000000" r="2"/>
<circle cx="3.36" cy="-170" fill="#000000" r="2"/>
<circle cx="3.84" cy="-170" fill="#000000" r="2"/>
<circle cx="4.32" cy="-170" fill="#000000" r="2"/>
<circle cx="4.8" cy="-170" fill="#000000" r="2"/>
<circle cx="5.28" cy="-170" fill="#000000" r="2"/>
<circle cx="5.76" cy="-170" fill="#000000" r="2"/>
<circle cx="6.24" cy="-170" fill="#000000" r="2"/>
<circle cx="6.72" cy="-170" fill="#000000" r="2"/>
<circle cx="7.2" cy="-170" fill="#000000" r="2"/>
<circle cx="7.68" cy="-170" fill="#000000" r="2"/>
<circle cx="8.16" cy="-170" fill="#000000" r="2"/>
<circle cx="8.64" cy="-170" fill="#000000" r="2"/>
<circle cx="9.12" cy="-170" fill="#000000" r="2"/>
<circle cx="9.6" cy="-170" fill="#000000" r="2"/>
<circle cx="10.08" cy="-170" fill="#000000" r="2"/>
<circle cx="10.56" cy="-170" fill="#000000" r="2"/>
<circle cx="11.04" cy="-170" fill="#000000" r="2"/>
<circle cx="11.52" cy="-170" fill="#000000" r="2"/>
<circle cx="12" cy="-170" fill="#000000" r="2"/>
<circle cx="12.48" cy="-170" fill="#000000" r="2"/>
<circle cx="12.96" cy="-170" fill="#000000" r="2"/>
<circle cx="13.44" cy="-170" fill="#000000" r="2"/>
<circle cx="13.92" cy="-170" fill="#000000" r="2"/>
<circle cx="14.4" cy="-170" fill="#000000" r="2"/>
<circle cx="14.88" cy="-170" fill="#000000" r="2"/>
<circle cx="15.36" cy="-170" fill="#000000" r="2"/>
<circle cx="15.84" cy="-170" fill="#000000" r="2"/>
<circle cx="16.32" cy="-170" fill="#000000" r="2"/>
<circle cx="16.8" cy="-170" fill="#000000" r="2"/>
<circle cx="17.28" cy="-170" fill="#000000" r="2"/>
<circle cx="17.76" cy="-170" fill="#000000" r="2"/>
<circle cx="18.24" cy="-170" fill="#000000" r="2"/>
<circle cx="18.72" cy="-170" fill="#000000" r="2"/>
<circle cx="19.2" cy="-170" fill="#000000" r="2"/>
<circle cx="19.68" cy="-170" fill="#000000" r="2"/>
<circle cx="20.16" cy="-170" fill="#000000" r="2"/>
<circle cx="20.64" cy="-170" fill="#000000" r="2"/>
<circle cx="21.12" cy="-170" fill="#000000" r="2"/>
<circle cx="21.6" cy="-170" fill="#000000" r="2"/>
<circle cx="22.08" cy="-170" fill="#000000" r="2"/>
<circle cx="22.56" cy="-170" fill="#000000" r="2"/>
<circle cx="23.04" cy="-170" fill="#000000" r="2"/>
<circle cx="23.52" cy="-170" fill="#000000" r="2"/>
<circle cx="24" cy="-170" fill="#000000" r="2"/>
<circle cx="24.48" cy="-170" fill="#000000" r="2"/>
<circle cx="24.96" cy="-170" fill="#000000" r="2"/>
<circle cx="25.44" cy="-170" fill="#000000" r="2"/>
<circle cx="25.92" cy="-170" fill="#000000" r="2"/>
<circle cx="26.4" cy="-170" fill="#000000" r="2"/>
<circle cx="26.88" cy="-170" fill="#000000" r="2"/>
<circle cx="27.36" cy="-170" fill="#000000" r="2"/>
<circle cx="27.84" cy="-170" fill="#000000" r="2"/>
<circle cx="28.32" cy="-170" fill="#000000" r="2"/>
<circle cx="28.8" cy="-170" fill="#000000" r="2"/>
<circle cx="29.28" cy="-170" fill="#000000" r="2"/>
<circle cx="29.76" cy="-170" fill="#000000" r="2"/>
<circle cx="30.24" cy="-170" fill="#000000" r="2"/>
<circle cx="30.72" cy="-170" fill="#000000" r="2"/>
<circle cx="31.2" cy="-170" fill="#000000" r="2"/>
<circle cx="31.68" cy="-170" fill="#000000" r="2"/>
<circle cx="32.16" cy="-170" fill="#000000" r="2"/>
<circle cx="32.64" cy="-170" fill="#000000" r="2"/>
<circle cx="33.12" cy="-170" fill="#000000" r="2"/>
<circle cx="33.6" cy="-170" fill="#000000" r="2"/>
<circle cx="34.08" cy="-170" fill="#000000" r="2"/>
<circle cx="34.56" cy="-170" fill="#000000" r="2"/>
<circle cx="35.04" cy="-170" fill="#000000" r="2"/>
<circle cx="35.52" cy="-170" fill="#000000" r="2"/>
<circle cx="36" cy="-170" fill="#000000" r="2"/>
<circle cx="36.48" cy="-170" fill="#000000" r="2"/>
<circle cx="36.96" cy="-170" fill="#000000" r="2"/>
<circle cx="37.44" cy="-170" fill="#000000" r="2"/>
<circle cx="37.92" cy="-170" fill="#000000" r="2"/>
<circle cx="38.4" cy="-170" fill="#000000" r="2"/>
<circle cx="38.88" cy="-170" fill="#000000" r="2"/>
<circle cx="39.36" cy="-170" fill="#000000" r="2"/>
<circle cx="39.84" cy="-170" fill="#000000" r="2"/>
<circle cx="40.32" cy="-170" fill="#000000" r="2"/>
<circle cx="40.8" cy="-170" fill="#000000" r="2"/>
<circle cx="41.28" cy="-170" fill="#000000" r="2"/>
<circle cx="41.76" cy="-170" fill="#000000" r="2"/>
<circle cx="42.24" cy="-170" fill="#000000" r="2"/>
<circle cx="42.72" cy="-170" fill="#000000" r="2"/>
<circle cx="43.2" cy="-170" fill="#000000" r="2"/>
<circle cx="43.68" cy="-170" fill="#000000" r="2"/>
<circle cx="44.16" cy="-170" fill="#000000" r="2"/>
<circle cx="44.64" cy="-170" fill="#000000" r="2"/>
<circle cx="45.12" cy="-170" fill="#000000" r="2"/>
<circle cx="45.6" cy="-170" fill="#000000" r="2"/>
<circle cx="46.08" cy="-170" fill="#000000" r="2"/>
<circle cx="46.56" cy="-170" fill="#000000" r="2"/>
<circle cx="47.04" cy="-170" fill="#000000" r="2"/>
<circle cx="47.52" cy="-170" fill="#000000" r="2"/>
<circle cx="48" cy="-170" fill="#000000" r="2"/>
<circle cx="48.48" cy="-170" fill="#000000" r="2"/>
<circle cx="48.96" cy="-170" fill="#000000" r="2"/>
<circle cx="49.44" cy="-170" fill="#000000" r="2"/>
<circle cx="49.92" cy="-170" fill="#000000" r="2"/>
<circle cx="50.4" cy="-170" fill="#000000" r="2"/>
<circle cx="50.88" cy="-170" fill="#000000" r="2"/>
<circle cx="51.36" cy="-170" fill="#000000" r="2"/>
<circle cx="51.84" cy="-170" fill="#000000" r="2"/>
<circle cx="52.32" cy="-170" fill="#000000" r="2"/>
<circle cx="52.8" cy="-170" fill="#000000" r="2"/>
<circle cx="53.28" cy="-170" fill="#000000" r="2"/>
<circle cx="53.76" cy="-170" fill="#000000" r="2"/>
<circle cx="54.24" cy="-170" fill="#000000" r="2"/>
<circle cx="54.72" cy="-170" fill="#000000" r="2"/>
<circle cx="55.2" cy="-170" fill="#000000" r="2"/>
<circle cx="55.68" cy="-170" fill="#000000" r="2"/>
<circle cx="56.16" cy="-170" fill="#000000" r="2"/>
<circle cx="56.64" cy="-170" fill="#000000" r="2"/>
<circle cx="57.12" cy="-170" fill="#000000" r="2"/>
<circle cx="57.6" cy="-170" fill="#000000" r="2"/>
<circle cx="58.08" cy="-170" fill="#000000" r="2"/>
<circle cx="58.56" cy="-170" fill="#000000" r="2"/>
<circle cx="59.04" cy="-170" fill="#000000" r="2"/>
<circle cx="59.52" cy="-170" fill="#000000" r="2"/>
<circle cx="60" cy="-170" fill="#000000" r="2"/>
<circle cx="60.48" cy="-170" fill="#000000" r="2"/>
<circle cx="60.96" cy="-170" fill="#000000" r="2"/>
<circle cx="61.44" cy="-170" fill="#000000" r="2"/>
<circle cx="61.92" cy="-170" fill="#000000" r="2"/>
<circle cx="62.4" cy="-170" fill="#000000" r="2"/>
<circle cx="62.88" cy="-170" fill="#000000" r="2"/>
<circle cx="63.36" cy="-170" fill="#000000" r="2"/>
<circle cx="63.84" cy="-170" fill="#000000" r="2"/>
<circle cx="64.32" cy="-170" fill="#000000" r="2"/>
<circle cx="64.8" cy="-170" fill="#000000" r="2"/>
<circle cx="65.28" cy="-170" fill="#000000" r="2"/>
<circle cx="65.76" cy="-170" fill="#000000" r="2"/>
<circle cx="66.24" cy="-170" fill="#000000" r="2"/>
<circle cx="66.72" cy="-170" fill="#000000" r="2"/>
<circle cx="67.2" cy="-170" fill="#000000" r="2"/>
<circle cx="67.68" cy="-170" fill="#000000" r="2"/>
<circle cx="68.16" cy="-170" fill="#000000" r="2"/>
<circle cx="68.64" cy="-170" fill="#000000" r="2"/>
<circle cx="69.12" cy="-170" fill="#000000" r="2"/>
<circle cx="69.6" cy="-170" fill="#000000" r="2"/>
<circle cx="70.08" cy="-170" fill="#000000" r="2"/>
<circle cx="70.56" cy="-170" fill="#000000" r="2"/>
<circle cx="71.04" cy="-170" fill="#000000" r="2"/>
<circle cx="71.52" cy="-170" fill="#000000" r="2"/>
<circle cx="72" cy="-170" fill="#000000" r="2"/>
<circle cx="72.48" cy="-170" fill="#000000" r="2"/>
<circle cx="72.96" cy="-170" fill="#000000" r="2"/>
<circle cx="73.44" cy="-170" fill="#000000" r="2"/>
<circle cx="73.92" cy="-170" fill="#000000" r="2"/>
<circle cx="74.4" cy="-170" fill="#000000" r="2"/>
<circle cx="74.88" cy="-170" fill="#000000" r="2"/>
<circle cx="75.36" cy="-170" fill="#000000" r="2"/>
<circle cx="75.84" cy="-170" fill="#000000" r="2"/>
<circle cx="76.32" cy="-170" fill="#000000" r="2"/>
<circle cx="76.8" cy="-170" fill="#000000" r="2"/>
<circle cx="77.28" cy="-170" fill="#000000" r="2"/>
<circle cx="77.76" cy="-170" fill="#000000" r="2"/>
<circle cx="78.24" cy="-170" fill="#000000" r="2"/>
<circle cx="78.72" cy="-170" fill="#000000" r="2"/>
<circle cx="79.2" cy="-170" fill="#000000" r="2"/>
<circle cx="79.68" cy="-170" fill="#000000" r="2"/>
<circle cx="80.16" cy="-170" fill="#000000" r="2"/>
<circle cx="80.64" cy="-170" fill="#000000" r="2"/>
<circle cx="81.12" cy="-170" fill="#000000" r="2"/>
<circle cx="81.6" cy="-170" fill="#000000" r="2"/>
<circle cx="82.08" cy="-170" fill="#000000" r="2"/>
<circle cx="82.56" cy="-170" fill="#000000" r="2"/>
<circle cx="83.04" cy="-170" fill="#000000" r="2"/>
<circle cx="83.52" cy="-170" fill="#000000" r="2"/>
<circle cx="84" cy="-170" fill="#000000" r="2"/>
<circle cx="84.48" cy="-170" fill="#000000" r="2"/>
<circle cx="84.96" cy="-170" fill="#000000" r="2"/>
<circle cx="85.44" cy="-170" fill="#000000" r="2"/>
<circle cx="85.92" cy="-170" fill="#000000" r="2"/>
<circle cx="86.4" cy="-170" fill="#000000" r="2"/>
<circle cx="86.88" cy="-170" fill="#000000" r="2"/>
<circle cx="87.36" cy="-170" fill="#000000" r="2"/>
<circle cx="87.84" cy="-170" fill="#000000" r="2"/>
<circle cx="88.32" cy="-170" fill="#000000" r="2"/>
<circle cx="88.8" cy="-170" fill="#000000" r="2"/>
<circle cx="89.28" cy="-170" fill="#000000" r="2"/>
<circle cx="89.76" cy="-170" fill="#000000" r="2"/>
<circle cx="90.24" cy="-170" fill="#000000" r="2"/>
<circle cx="90.72" cy="-170" fill="#000000" r="2"/>
<circle cx="91.2" cy="-170" fill="#000000" r="2"/>
<circle cx="91.68" cy="-170" fill="#000000" r="2"/>
<circle cx="92.16" cy="-170" fill="#000000" r="2"/>
<circle cx="92.64" cy="-170" fill="#000000" r="2"/>
<circle cx="93.12" cy="-170" fill="#000000" r="2"/>
<circle cx="93.6" cy="-170" fill="#000000" r="2"/>
<circle cx="94.08" cy="-170" fill="#000000" r="2"/>
<circle cx="94.56" cy="-170" fill="#000000" r="2"/>
<circle cx="95.04" cy="-170" fill="#000000" r="2"/>
<circle cx="95.52" cy="-170" fill="#000000" r="2"/>
<circle cx="96" cy="-170" fill="#000000" r="2"/>
<circle cx="96.48" cy="-170" fill="#000000" r="2"/>
<circle cx="96.96" cy="-170" fill="#000000" r="2"/>
<circle cx="97.44" cy="-170" fill="#000000" r="2"/>
<circle cx="97.92" cy="-170" fill="#000000" r="2"/>
<circle cx="98.4" cy="-170" fill="#000000" r="2"/>
<circle cx="98.88" cy="-170" fill="#000000" r="2"/>
<circle cx="99.36" cy="-170" fill="#000000" r="2"/>
<circle cx="99.84" cy="-170" fill="#000000" r="2"/>
<circle cx="100.32" cy="-170" fill="#000000" r="2"/>
<circle cx="100.8" cy="-170" fill="#000000" r="2"/>
<circle cx="101.28" cy="-170" fill="#000000" r="2"/>
<circle cx="101.76" cy="-170" fill="#000000" r="2"/>
<circle cx="102.24" cy="-170" fill="#000000" r="2"/>
<circle cx="102.72" cy="-170" fill="#000000" r="2"/>
<circle cx="103.2" cy="-170" fill="#000000" r="2"/>
<circle cx="103.68" cy="-170" fill="#000000" r="2"/>
<circle cx="104.16" cy="-170" fill="#000000" r="2"/>
<circle cx="104.64" cy="-170" fill="#000000" r="2"/>
<circle cx="105.12" cy="-170" fill="#000000" r="2"/>
<circle cx="105.6" cy="-170" fill="#000000" r="2"/>
<circle cx="106.08" cy="-170" fill="#000000" r="2"/>
<circle cx="106.56" cy="-170" fill="#000000" r="2"/>
<circle cx="107.04" cy="-170" fill="#000000" r="2"/>
<circle cx="107.52" cy="-170" fill="#000000" r="2"/>
<circle cx="108" cy="-170" fill="#000000" r="2"/>
<circle cx="108.48" cy="-170" fill="#000000" r="2"/>
<circle cx="108.96" cy="-170" fill="#000000" r="2"/>
<circle cx="109.44" cy="-170" fill="#000000" r="2"/>
<circle cx="109.92" cy="-170" fill="#000000" r="2"/>
<circle cx="110.4" cy="-170" fill="#000000" r="2"/>
<circle cx="110.88" cy="-170" fill="#000000" r="2"/>
<circle cx="111.36" cy="-170" fill="#000000" r="2"/>
<circle cx="111.84" cy="-170" fill="#000000" r="2"/>
<circle cx="112.32" cy="-170" fill="#000000" r="2"/>
<circle cx="112.8" cy="-170" fill="#000000" r="2"/>
<circle cx="113.28" cy="-170" fill="#000000" r="2"/>
<circle cx="113.76" cy="-170" fill="#000000" r="2"/>
<circle cx="114.24" cy="-170" fill="#000000" r="2"/>
<circle cx="114.72" cy="-170" fill="#000000" r="2"/>
<circle cx="115.2" cy="-170" fill="#000000" r="2"/>
<circle cx="115.68" cy="-170" fill="#000000" r="2"/>
<circle cx="116.16" cy="-170" fill="#000000" r="2"/>
<circle cx="116.64" cy="-170" fill="#000000" r="2"/>
<circle cx="117.12" cy="-170" fill="#000000" r="2"/>
<circle cx="117.6" cy="-170" fill="#000000" r="2"/>
<circle cx="118.08" cy="-170" fill="#000000" r="2"/>
<circle cx="118.56" cy="-170" fill="#000000" r="2"/>
<circle cx="119.04" cy="-170" fill="#000000" r="2"/>
<circle cx="119.52" cy="-170" fill="#000000" r="2"/>
<circle cx="120" cy="-170" fill="#000000" r="2"/>
<circle cx="120.48" cy="-170" fill="#000000" r="2"/>
<circle cx="120.96" cy="-170" fill="#000000" r="2"/>
<circle cx="121.44" cy="-170" fill="#000000" r="2"/>
<circle cx="121.92" cy="-170" fill="#000000" r="2"/>
<circle cx="122.4" cy="-170" fill="#000000" r="2"/>
<circle cx="122.88" cy="-170" fill="#000000" r="2"/>
<circle cx="123.36" cy="-170" fill="#000000" r="2"/>
<circle cx="123.84" cy="-170" fill="#000000" r="2"/>
<circle cx="124.32" cy="-170" fill="#000000" r="2"/>
<circle cx="124.8" cy="-170" fill="#000000" r="2"/>
<circle cx="125.28" cy="-170" fill="#000000" r="2"/>
<circle cx="125.76" cy="-170" fill="#000000" r="2"/>
<circle cx="126.24" cy="-170" fill="#000000" r="2"/>
<circle cx="126.72" cy="-170" fill="#000000" r="2"/>
<circle cx="127.2" cy="-170" fill="#000000" r="2"/>
<circle cx="127.68" cy="-170" fill="#000000" r="2"/>
<circle cx="128.16" cy="-170" fill="#000000" r="2"/>
<circle cx="128.64" cy="-170" fill="#000000" r="2"/>
<circle cx="129.12" cy="-170" fill="#000000" r="2"/>
<circle cx="129.6" cy="-170" fill="#000000" r="2"/>
<circle cx="130.08" cy="-170" fill="#000000" r="2"/>
<circle cx="130.56" cy="-170" fill="#000000" r="2"/>
<circle cx="131.04" cy="-170" fill="#000000" r="2"/>
<circle cx="131.52" cy="-170" fill="#000000" r="2"/>
<circle cx="132" cy="-170" fill="#000000" r="2"/>
<circle cx="132.48" cy="-170" fill="#000000" r="2"/>
<circle cx="132.96" cy="-170" fill="#000000" r="2"/>
<circle cx="133.44" cy="-170" fill="#000000" r="2"/>
<circle cx="133.92" cy="-170" fill="#000000" r="2"/>
<circle cx="134.4" cy="-170" fill="#000000" r="2"/>
<circle cx="134.88" cy="-170" fill="#000000" r="2"/>
<circle cx="135.36" cy="-170" fill="#000000" r="2"/>
<circle cx="135.84" cy="-170" fill="#000000" r="2"/>
<circle cx="136.32" cy="-170" fill="#000000" r="2"/>
<circle cx="136.8" cy="-170" fill="#000000" r="2"/>
<circle cx="137.28" cy="-170" fill="#000000" r="2"/>
<circle cx="137.76" cy="-170" fill="#000000" r="2"/>
<circle cx="138.24" cy="-170" fill="#000000" r="2"/>
<circle cx="138.72" cy="-170" fill="#000000" r="2"/>
<circle cx="139.2" cy="-170" fill="#000000" r="2"/>
<circle cx="139.68" cy="-170" fill="#000000" r="2"/>
<circle cx="140.16" cy="-170" fill="#000000" r="2"/>
<circle cx="140.64" cy="-170" fill="#000000" r="2"/>
<circle cx="141.12" cy="-170" fill="#000000" r="2"/>
<circle cx="141.6" cy="-170" fill="#000000" r="2"/>
<circle cx="142.08" cy="-170" fill="#000000" r="2"/>
<circle cx="142.56" cy="-170" fill="#000000" r="2"/>
<circle cx="143.04" cy="-170" fill="#000000" r="2"/>
<circle cx="143.52" cy="-170" fill="#000000" r="2"/>
<circle cx="144" cy="-170" fill="#000000" r="2"/>
<circle cx="144.48" cy="-170" fill="#000000" r="2"/>
<circle cx="144.96" cy="-170" fill="#000000" r="2"/>
<circle cx="145.44" cy="-170" fill="#000000" r="2"/>
<circle cx="145.92" cy="-170" fill="#000000" r="2"/>
<circle cx="146.4" cy="-170" fill="#000000" r="2"/>
<circle cx="146.88" cy="-170" fill="#000000" r="2"/>
<circle cx="147.36" cy="-170" fill="#000000" r="2"/>
<circle cx="147.84" cy="-170" fill="#000000" r="2"/>
<circle cx="148.32" cy="-170" fill="#000000" r="2"/>
<circle cx="148.8" cy="-170" fill="#000000" r="2"/>
<circle cx="149.28" cy="-170" fill="#000000" r="2"/>
<circle cx="149.76" cy="-170" fill="#000000" r="2"/>
<circle cx="150.24" cy="-170" fill="#000000" r="2"/>
<circle cx="150.72" cy="-170" fill="#000000" r="2"/>
<circle cx="151.2" cy="-170" fill="#000000" r="2"/>
<circle cx="151.68" cy="-170" fill="#000000" r="2"/>
<circle cx="152.16" cy="-170" fill="#000000" r="2"/>
<circle cx="152.64" cy="-170" fill="#000000" r="2"/>
<circle cx="153.12" cy="-170" fill="#000000" r="2"/>
<circle cx="153.6" cy="-170" fill="#000000" r="2"/>
<circle cx="154.08" cy="-170" fill="#000000" r="2"/>
<circle cx="154.56" cy="-170" fill="#000000" r="2"/>
<circle cx="155.04" cy="-170" fill="#000000" r="2"/>
<circle cx="155.52" cy="-170" fill="#000000" r="2"/>
<circle cx="156" cy="-170" fill="#000000" r="2"/>
<circle cx="156.48" cy="-170" fill="#000000" r="2"/>
<circle cx="156.96" cy="-170" fill="#000000" r="2"/>
<circle cx="157.44" cy="-170" fill="#000000" r="2"/>
<circle cx="157.92" cy="-170" fill="#000000" r="2"/>
<circle cx="158.4" cy="-170" fill="#000000" r="2"/>
<circle cx="158.88" cy="-170" fill="#000000" r="2"/>
<circle cx="159.36" cy="-170" fill="#000000" r="2"/>
<circle cx="159.84" cy="-170" fill="#000000" r="2"/>
<circle cx="160.32" cy="-170" fill="#000000" r="2"/>
<circle cx="160.8" cy="-170" fill="#000000" r="2"/>
<circle cx="161.28" cy="-170" fill="#000000" r="2"/>
<circle cx="161.76" cy="-170" fill="#000000" r="2"/>
<circle cx="162.24" cy="-170" fill="#000000" r="2"/>
<circle cx="162.72" cy="-170" fill="#000000" r="2"/>
<circle cx="163.2" cy="-170" fill="#000000" r="2"/>
<circle cx="163.68" cy="-170" fill="#000000" r="2"/>
<circle cx="164.16" cy="-170" fill="#000000" r="2"/>
<circle cx="164.64" cy="-170" fill="#000000" r="2"/>
<circle cx="165.12" cy="-170" fill="#000000" r="2"/>
<circle cx="165.6" cy="-170" fill="#000000" r="2"/>
<circle cx="166.08" cy="-170" fill="#000000" r="2"/>
<circle cx="166.56" cy="-170" fill="#000000" r="2"/>
<circle cx="167.04" cy="-170" fill="#000000" r="2"/>
<circle cx="167.52" cy="-170" fill="#000000" r="2"/>
<circle cx="168" cy="-170" fill="#000000" r="2"/>
<circle cx="168.48" cy="-170" fill="#000000" r="2"/>
<circle cx="168.96" cy="-170" fill="#000000" r="2"/>
<circle cx="169.44" cy="-170" fill="#000000" r="2"/>
<circle cx="169.92" cy="-170" fill="#000000" r="2"/>
<circle cx="170.4" cy="-170" fill="#000000" r="2"/>
<circle cx="170.88" cy="-170" fill="#000000" r="2"/>
<circle cx="171.36" cy="-170" fill="#000000" r="2"/>
<circle cx="171.84" cy="-170" fill="#000000" r="2"/>
<circle cx="172.32" cy="-170" fill="#000000" r="2"/>
<circle cx="172.8" cy="-170" fill="#000000" r="2"/>
<circle cx="173.28" cy="-170" fill="#000000" r="2"/>
<circle cx="173.76" cy="-170" fill="#000000" r="2"/>
<circle cx="174.24" cy="-170" fill="#000000" r="2"/>
<circle cx="174.72" cy="-170" fill="#000000" r="2"/>
<circle cx="175.2" cy="-170" fill="#000000" r="2"/>
<circle cx="175.68" cy="-170" fill="#000000" r="2"/>
<circle cx="176.16" cy="-170" fill="#000000" r="2"/>
<circle cx="176.64" cy="-170" fill="#000000" r="2"/>
<circle cx="177.12" cy="-170" fill="#000000" r="2"/>
<circle cx="177.6" cy="-170" fill="#000000" r="2"/>
<circle cx="178.08" cy="-170" fill="#000000" r="2"/>
<circle cx="178.56" cy="-170" fill="#000000" r="2"/>
<circle cx="179.04" cy="-170" fill="#000000" r="2"/>
<circle cx="179.52" cy="-170" fill="#000000" r="2"/>
<circle cx="180" cy="-170" fill="#000000" r="2"/>
<circle cx="180.48" cy="-170" fill="#000000" r="2"/>
<circle cx="180.96" cy="-170" fill="#000000" r="2"/>
<circle cx="181.44" cy="-170" fill="#000000" r="2"/>
<circle cx="181.92" cy="-170" fill="#000000" r="2"/>
<circle cx="182.4" cy="-170" fill="#000000" r="2"/>
<circle cx="182.88" cy="-170" fill="#000000" r="2"/>
<circle cx="183.36" cy="-170" fill="#000000" r="2"/>
<circle cx="183.84" cy="-170" fill="#000000" r="2"/>
<circle cx="184.32" cy="-170" fill="#000000" r="2"/>
<circle cx="184.8" cy="-170" fill="#000000" r="2"/>
<circle cx="185.28" cy="-170" fill="#000000" r="2"/>
<circle cx="185.76" cy="-170" fill="#000000" r="2"/>
<circle cx="186.24" cy="-170" fill="#000000" r="2"/>
<circle cx="186.72" cy="-170" fill="#000000" r="2"/>
<circle cx="187.2" cy="-170" fill="#000000" r="2"/>
<circle cx="187.68" cy="-170" fill="#000000" r="2"/>
<circle cx="188.16" cy="-170" fill="#000000" r="2"/>
<circle cx="188.64" cy="-170" fill="#000000" r="2"/>
<circle cx="189.12" cy="-170" fill="#000000" r="2"/>
<circle cx="189.6" cy="-170" fill="#000000" r="2"/>
<circle cx="190.08" cy="-170" fill="#000000" r="2"/>
<circle cx="190.56" cy="-170" fill="#000000" r="2"/>
<circle cx="191.04" cy="-170" fill="#000000" r="2"/>
<circle cx="191.52" cy="-170" fill="#000000" r="2"/>
<circle cx="192" cy="-170" fill="#000000" r="2"/>
<circle cx="192.48" cy="-170" fill="#000000" r="2"/>
<circle cx="192.96" cy="-170" fill="#000000" r="2"/>
<circle cx="193.44" cy="-170" fill="#000000" r="2"/>
<circle cx="193.92" cy="-170" fill="#000000" r="2"/>
<circle cx="194.4" cy="-170" fill="#000000" r="2"/>
<circle cx="194.88" cy="-170" fill="#000000" r="2"/>
<circle cx="195.36" cy="-170" fill="#000000" r="2"/>
<circle cx="195.84" cy="-170" fill="#000000" r="2"/>
<circle cx="196.32" cy="-170" fill="#000000" r="2"/>
<circle cx="196.8" cy="-170" fill="#000000" r="2"/>
<circle cx="197.28" cy="-170" fill="#000000" r="2"/>
<circle cx="197.76" cy="-170" fill="#000000" r="2"/>
<circle cx="198.24" cy="-170" fill="#000000" r="2"/>
<circle cx="198.72" cy="-170" fill="#000000" r="2"/>
<circle cx="199.2" cy="-170" fill="#000000" r="2"/>
<circle cx="199.68" cy="-170" fill="#000000" r="2"/>
<circle cx="200.16" cy="-170" fill="#000000" r="2"/>
<circle cx="200.64" cy="-170" fill="#000000" r="2"/>
<circle cx="201.12" cy="-170" fill="#000000" r="2"/>
<circle cx="201.6" cy="-170" fill="#000000" r="2"/>
<circle cx="202.08" cy="-170" fill="#000000" r="2"/>
<circle cx="202.56" cy="-170" fill="#000000" r="2"/>
<circle cx="203.04" cy="-170" fill="#000000" r="2"/>
<circle cx="203.52" cy="-170" fill="#000000" r="2"/>
<circle cx="204" cy="-170" fill="#000000" r="2"/>
<circle cx="204.48" cy="-170" fill="#000000" r="2"/>
<circle cx="204.96" cy="-170" fill="#000000" r="2"/>
<circle cx="205.44" cy="-170" fill="#000000" r="2"/>
<circle cx="205.92" cy="-170" fill="#000000" r="2"/>
<circle cx="206.4" cy="-170" fill="#000000" r="2"/>
<circle cx="206.88" cy="-170" fill="#000000" r="2"/>
<circle cx="207.36" cy="-170" fill="#000000" r="2"/>
<circle cx="207.84" cy="-170" fill="#000000" r="2"/>
<circle cx="208.32" cy="-170" fill="#000000" r="2"/>
<circle cx="208.8" cy="-170" fill="#000000" r="2"/>
<circle cx="209.28" cy="-170" fill="#000000" r="2"/>
<circle cx="209.76" cy="-170" fill="#000000" r="2"/>
<circle cx="210.24" cy="-170" fill="#000000" r="2"/>
<circle cx="210.72" cy="-170" fill="#000000" r="2"/>
<circle cx="211.2" cy="-170" fill="#000000" r="2"/>
<circle cx="211.68" cy="-170" fill="#000000" r="2"/>
<circle cx="212.16" cy="-170" fill="#000000" r="2"/>
<circle cx="212.64" cy="-170" fill="#000000" r="2"/>
<circle cx="213.12" cy="-170" fill="#000000" r="2"/>
<circle cx="213.6" cy="-170" fill="#000000" r="2"/>
<circle cx="214.08" cy="-170" fill="#000000" r="2"/>
<circle cx="214.56" cy="-170" fill="#000000" r="2"/>
<circle cx="215.04" cy="-170" fill="#000000" r="2"/>
<circle cx="215.52" cy="-170" fill="#000000" r="2"/>
<circle cx="216" cy="-170" fill="#000000" r="2"/>
<circle cx="216.48" cy="-170" fill="#000000" r="2"/>
<circle cx="216.96" cy="-170" fill="#000000" r="2"/>
<circle cx="217.44" cy="-170" fill="#000000" r="2"/>
<circle cx="217.92" cy="-170" fill="#000000" r="2"/>
<circle cx="218.4" cy="-170" fill="#000000" r="2"/>
<circle cx="218.88" cy="-170" fill="#000000" r="2"/>
<circle cx="219.36" cy="-170" fill="#000000" r="2"/>
<circle cx="219.84" cy="-170" fill="#000000" r="2"/>
<circle cx="220.32" cy="-170" fill="#000000" r="2"/>
<circle cx="220.8" cy="-170" fill="#000000" r="2"/>
<circle cx="221.28" cy="-170" fill="#000000" r="2"/>
<circle cx="221.76" cy="-170" fill="#000000" r="2"/>
<circle cx="222.24" cy="-170" fill="#000000" r="2"/>
<circle cx="222.72" cy="-170" fill="#000000" r="2"/>
<circle cx="223.2" cy="-170" fill="#000000" r="2"/>
<circle cx="223.68" cy="-170" fill="#000000" r="2"/>
<circle cx="224.16" cy="-170" fill="#000000" r="2"/>
<circle cx="224.64" cy="-170" fill="#000000" r="2"/>
<circle cx="225.12" cy="-170" fill="#000000" r="2"/>
<circle cx="225.6" cy="-170" fill="#000000" r="2"/>
<circle cx="226.08" cy="-170" fill="#000000" r="2"/>
<circle cx="226.56" cy="-170" fill="#000000" r="2"/>
<circle cx="227.04" cy="-170" fill="#000000" r="2"/>
<circle cx="227.52" cy="-170" fill="#000000" r="2"/>
<circle cx="228" cy="-170" fill="#000000" r="2"/>
<circle cx="228.48" cy="-170" fill="#000000" r="2"/>
<circle cx="228.96" cy="-170" fill="#000000" r="2"/>
<circle cx="229.44" cy="-170" fill="#000000" r="2"/>
<circle cx="229.92" cy="-170" fill="#000000" r="2"/>
<circle cx="230.4" cy="-170" fill="#000000" r="2"/>
<circle cx="230.88" cy="-170" fill="#000000" r="2"/>
<circle cx="231.36" cy="-170" fill="#000000" r="2"/>
<circle cx="231.84" cy="-170" fill="#000000" r="2"/>
<circle cx="232.32" cy="-170" fill="#000000" r="2"/>
<circle cx="232.8" cy="-170" fill="#000000" r="2"/>
<circle cx="233.28" cy="-170" fill="#000000" r="2"/>
<circle cx="233.76" cy="-170" fill="#000000" r="2"/>
<circle cx="234.24" cy="-170" fill="#000000" r="2"/>
<circle cx="234.72" cy="-170" fill="#000000" r="2"/>
<circle cx="235.2" cy="-170" fill="#000000" r="2"/>
<circle cx="235.68" cy="-170" fill="#000000" r="2"/>
<circle cx="236.16" cy="-170" fill="#000000" r="2"/>
<circle cx="236.64" cy="-170" fill="#000000" r="2"/>
<circle cx="237.12" cy="-170" fill="#000000" r="2"/>
<circle cx="237.6" cy="-170" fill="#000000" r="2"/>
<circle cx="238.08" cy="-170" fill="#000000" r="2"/>
<circle cx="238.56" cy="-170" fill="#000000" r="2"/>
<circle cx="239.04" cy="-170" fill="#000000" r="2"/>
<circle cx="239.52" cy="-170" fill="#000000" r="2"/>
<circle cx="240" cy="-170" fill="#000000" r="2"/>
<circle cx="240.48" cy="-170" fill="#000000" r="2"/>
<circle cx="240.96" cy="-170" fill="#000000" r="2"/>
<circle cx="241.44" cy="-170" fill="#000000" r="2"/>
<circle cx="241.92" cy="-170" fill="#000000" r="2"/>
<circle cx="242.4" cy="-170" fill="#000000" r="2"/>
<circle cx="242.88" cy="-170" fill="#000000" r="2"/>
<circle cx="243.36" cy="-170" fill="#000000" r="2"/>
<circle cx="243.84" cy="-170" fill="#000000" r="2"/>
<circle cx="244.32" cy="-170" fill="#000000" r="2"/>
<circle cx="244.8" cy="-170" fill="#000000" r="2"/>
<circle cx="245.28" cy="-170" fill="#000000" r="2"/>
<circle cx="245.76" cy="-170" fill="#000000" r="2"/>
<circle cx="246.24" cy="-170" fill="#000000" r="2"/>
<circle cx="246.72" cy="-170" fill="#000000" r="2"/>
<circle cx="247.2" cy="-170" fill="#000000" r="2"/>
<circle cx="247.68" cy="-170" fill="#000000" r="2"/>
<circle cx="248.16" cy="-170" fill="#000000" r="2"/>
<circle cx="248.64" cy="-170" fill="#000000" r="2"/>
<circle cx="249.12" cy="-170" fill="#000000" r="2"/>
<circle cx="249.6" cy="-170" fill="#000000" r="2"/>
<circle cx="250.08" cy="-170" fill="#000000" r="2"/>
<circle cx="250.56" cy="-170" fill="#000000" r="2"/>
<circle cx="251.04" cy="-170" fill="#000000" r="2"/>
<circle cx="251.52" cy="-170" fill="#000000" r="2"/>
<circle cx="252" cy="-170" fill="#000000" r="2"/>
<circle cx="252.48" cy="-170" fill="#000000" r="2"/>
<circle cx="252.96" cy="-170" fill="#000000" r="2"/>
<circle cx="253.44" cy="-170" fill="#000000" r="2"/>
<circle cx="253.92" cy="-170" fill="#000000" r="2"/>
<circle cx="254.4" cy="-170" fill="#000000" r="2"/>
<circle cx="254.88" cy="-170" fill="#000000" r="2"/>
<circle cx="255.36" cy="-170" fill="#000000" r="2"/>
<circle cx="255.84" cy="-170" fill="#000000" r="2"/>
<circle cx="256.32" cy="-170" fill="#000000" r="2"/>
<circle cx="256.8" cy="-170" fill="#000000" r="2"/>
<circle cx="257.28" cy="-170" fill="#000000" r="2"/>
<circle cx="257.76" cy="-170" fill="#000000" r="2"/>
<circle cx="258.24" cy="-170" fill="#000000" r="2"/>
<circle cx="258.72" cy="-170" fill="#000000" r="2"/>
<circle cx="259.2" cy="-170" fill="#000000" r="2"/>
<circle cx="259.68" cy="-170" fill="#000000" r="2"/>
<circle cx="260.16" cy="-170" fill="#000000" r="2"/>
<circle cx="260.64" cy="-170" fill="#000000" r="2"/>
<circle cx="261.12" cy="-170" fill="#000000" r="2"/>
<circle cx="261.6" cy="-170" fill="#000000" r="2"/>
<circle cx="262.08" cy="-170" fill="#000000" r="2"/>
<circle cx="262.56" cy="-170" fill="#000000" r="2"/>
<circle cx="263.04" cy="-170" fill="#000000" r="2"/>
<circle cx="263.52" cy="-170" fill="#000000" r="2"/>
<circle cx="264" cy="-170" fill="#000000" r="2"/>
<circle cx="264.48" cy="-170" fill="#000000" r="2"/>
<circle cx="264.96" cy="-170" fill="#000000" r="2"/>
<circle cx="265.44" cy="-170" fill="#000000" r="2"/>
<circle cx="265.92" cy="-170" fill="#000000" r="2"/>
<circle cx="266.4" cy="-170" fill="#000000" r="2"/>
<circle cx="266.88" cy="-170" fill="#000000" r="2"/>
<circle cx="267.36" cy="-170" fill="#000000" r="2"/>
<circle cx="267.84" cy="-170" fill="#000000" r="2"/>
<circle cx="268.32" cy="-170" fill="#000000" r="2"/>
<circle cx="268.8" cy="-170" fill="#000000" r="2"/>
<circle cx="269.28" cy="-170" fill="#000000" r="2"/>
<circle cx="269.76" cy="-170" fill="#000000" r="2"/>
<circle cx="270.24" cy="-170" fill="#000000" r="2"/>
<circle cx="270.72" cy="-170" fill="#000000" r="2"/>
<circle cx="271.2" cy="-170" fill="#000000" r="2"/>
<circle cx="271.68" cy="-170" fill="#000000" r="2"/>
<circle cx="272.16" cy="-170" fill="#000000" r="2"/>
<circle cx="272.64" cy="-170" fill="#000000" r="2"/>
<circle cx="273.12" cy="-170" fill="#000000" r="2"/>
<circle cx="273.6" cy="-170" fill="#000000" r="2"/>
<circle cx="274.08" cy="-170" fill="#000000" r="2"/>
<circle cx="274.56" cy="-170" fill="#000000" r="2"/>
<circle cx="275.04" cy="-170" fill="#000000" r="2"/>
<circle cx="275.52" cy="-170" fill="#000000" r="2"/>
<circle cx="276" cy="-170" fill="#000000" r="2"/>
<circle cx="276.48" cy="-170" fill="#000000" r="2"/>
<circle cx="276.96" cy="-170" fill="#000000" r="2"/>
<circle cx="277.44" cy="-170" fill="#000000" r="2"/>
<circle cx="277.92" cy="-170" fill="#000000" r="2"/>
<circle cx="278.4" cy="-170" fill="#000000" r="2"/>
<circle cx="278.88" cy="-170" fill="#000000" r="2"/>
<circle cx="279.36" cy="-170" fill="#000000" r="2"/>
<circle cx="279.84" cy="-170" fill="#000000" r="2"/>
<circle cx="280.32" cy="-170" fill="#000000" r="2"/>
<circle cx="280.8" cy="-170" fill="#000000" r="2"/>
<circle cx="281.28" cy="-170" fill="#000000" r="2"/>
<circle cx="281.76" cy="-170" fill="#000000" r="2"/>
<circle cx="282.24" cy="-170" fill="#000000" r="2"/>
<circle cx="282.72" cy="-170" fill="#000000" r="2"/>
<circle cx="283.2" cy="-170" fill="#000000" r="2"/>
<circle cx="283.68" cy="-170" fill="#000000" r="2"/>
<circle cx="284.16" cy="-170" fill="#000000" r="2"/>
<circle cx="284.64" cy="-170" fill="#000000" r="2"/>
<circle cx="285.12" cy="-170" fill="#000000" r="2"/>
<circle cx="285.6" cy="-170" fill="#000000" r="2"/>
<circle cx="286.08" cy="-170" fill="#000000" r="2"/>
<circle cx="286.56" cy="-170" fill="#000000" r="2"/>
<circle cx="287.04" cy="-170" fill="#000000" r="2"/>
<circle cx="287.52" cy="-170" fill="#000000" r="2"/>
<circle cx="288" cy="-170" fill="#000000" r="2"/>
<circle cx="288.48" cy="-170" fill="#000000" r="2"/>
<circle cx="288.96" cy="-170" fill="#000000" r="2"/>
<circle cx="289.44" cy="-170" fill="#000000" r="2"/>
<circle cx="289.92" cy="-170" fill="#000000" r="2"/>
<circle cx="290.4" cy="-170" fill="#000000" r="2"/>
<circle cx="290.88" cy="-170" fill="#000000" r="2"/>
<circle cx="291.36" cy="-170" fill="#000000" r="2"/>
<circle cx="291.84" cy="-170" fill="#000000" r="2"/>
<circle cx="292.32" cy="-170" fill="#000000" r="2"/>
<circle cx="292.8" cy="-170" fill="#000000" r="2"/>
<circle cx="293.28" cy="-170" fill="#000000" r="2"/>
<circle cx="293.76" cy="-170" fill="#000000" r="2"/>
<circle cx="294.24" cy="-170" fill="#000000" r="2"/>
<circle cx="294.72" cy="-170" fill="#000000" r="2"/>
<circle cx="295.2" cy="-170" fill="#000000" r="2"/>
<circle cx="295.68" cy="-170" fill="#000000" r="2"/>
<circle cx="296.16" cy="-170" fill="#000000" r="2"/>
<circle cx="296.64" cy="-170" fill="#000000" r="2"/>
<circle cx="297.12" cy="-170" fill="#000000" r="2"/>
<circle cx="297.6" cy="-170" fill="#000000" r="2"/>
<circle cx="298.08" cy="-170" fill="#000000" r="2"/>
<circle cx="298.56" cy="-170" fill="#000000" r="2"/>
<circle cx="299.04" cy="-170" fill="#000000" r="2"/>
<circle cx="299.52" cy="-170" fill="#000000" r="2"/>
<circle cx="300" cy="-170" fill="#000000" r="2"/>
<circle cx="300.48" cy="-170" fill="#000000" r="2"/>
<circle cx="300.96" cy="-170" fill="#000000" r="2"/>
<circle cx="301.44" cy="-170" fill="#000000" r="2"/>
<circle cx="301.92" cy="-170" fill="#000000" r="2"/>
<circle cx="302.4" cy="-170" fill="#000000" r="2"/>
<circle cx="302.88" cy="-170" fill="#000000" r="2"/>
<circle cx="303.36" cy="-170" fill="#000000" r="2"/>
<circle cx="303.84" cy="-170" fill="#000000" r="2"/>
<circle cx="304.32" cy="-170" fill="#000000" r="2"/>
<circle cx="304.8" cy="-170" fill="#000000" r="2"/>
<circle cx="305.28" cy="-170" fill="#000000" r="2"/>
<circle cx="305.76" cy="-170" fill="#000000" r="2"/>
<circle cx="306.24" cy="-170" fill="#000000" r="2"/>
<circle cx="306.72" cy="-170" fill="#000000" r="2"/>
<circle cx="307.2" cy="-170" fill="#000000" r="2"/>
<circle cx="307.68" cy="-170" fill="#000000" r="2"/>
<circle cx="308.16" cy="-170" fill="#000000" r="2"/>
<circle cx="308.64" cy="-170" fill="#000000" r="2"/>
<circle cx="309.12" cy="-170" fill="#000000" r="2"/>
<circle cx="309.6" cy="-170" fill="#000000" r="2"/>
<circle cx="310.08" cy="-170" fill="#000000" r="2"/>
<circle cx="310.56" cy="-170" fill="#000000" r="2"/>
<circle cx="311.04" cy="-170" fill="#000000" r="2"/>
<circle cx="311.52" cy="-170" fill="#000000" r="2"/>
<circle cx="312" cy="-170" fill="#000000" r="2"/>
<circle cx="312.48" cy="-170" fill="#000000" r="2"/>
<circle cx="312.96" cy="-170" fill="#000000" r="2"/>
<circle cx="313.44" cy="-170" fill="#000000" r="2"/>
<circle cx="313.92" cy="-170" fill="#000000" r="2"/>
<circle cx="314.4" cy="-170" fill="#000000" r="2"/>
<circle cx="314.88" cy="-170" fill="#000000" r="2"/>
<circle cx="315.36" cy="-170" fill="#000000" r="2"/>
<circle cx="315.84" cy="-170" fill="#000000" r="2"/>
<circle cx="316.32" cy="-170" fill="#000000" r="2"/>
<circle cx="316.8" cy="-170" fill="#000000" r="2"/>
<circle cx="317.28" cy="-170" fill="#000000" r="2"/>
<circle cx="317.76" cy="-170" fill="#000000" r="2"/>
<circle cx="318.24" cy="-170" fill="#000000" r="2"/>
<circle cx="318.72" cy="-170" fill="#000000" r="2"/>
<circle cx="319.2" cy="-170" fill="#000000" r="2"/>
<circle cx="319.68" cy="-170" fill="#000000" r="2"/>
<circle cx="320.16" cy="-170" fill="#000000" r="2"/>
<circle cx="320.64" cy="-170" fill="#000000" r="2"/>
<circle cx="321.12" cy="-170" fill="#000000" r="2"/>
<circle cx="321.6" cy="-170" fill="#000000" r="2"/>
<circle cx="322.08" cy="-170" fill="#000000" r="2"/>
<circle cx="322.56" cy="-170" fill="#000000" r="2"/>
<circle cx="323.04" cy="-170" fill="#000000" r="2"/>
<circle cx="323.52" cy="-170" fill="#000000" r="2"/>
<circle cx="324" cy="-170" fill="#000000" r="2"/>
<circle cx="324.48" cy="-170" fill="#000000" r="2"/>
<circle cx="324.96" cy="-170" fill="#000000" r="2"/>
<circle cx="325.44" cy="-170" fill="#000000" r="2"/>
<circle cx="325.92" cy="-170" fill="#000000" r="2"/>
<circle cx="326.4" cy="-170" fill="#000000" r="2"/>
<circle cx="326.88" cy="-170" fill="#000000" r="2"/>
<circle cx="327.36" cy="-170" fill="#000000" r="2"/>
<circle cx="327.84" cy="-170" fill="#000000" r="2"/>
<circle cx="328.32" cy="-170" fill="#000000" r="2"/>
<circle cx="328.8" cy="-170" fill="#000000" r="2"/>
<circle cx="329.28" cy="-170" fill="#000000" r="2"/>
<circle cx="329.76" cy="-170" fill="#000000" r="2"/>
<circle cx="330.24" cy="-170" fill="#000000" r="2"/>
<circle cx="330.72" cy="-170" fill="#000000" r="2"/>
<circle cx="331.2" cy="-170" fill="#000000" r="2"/>
<circle cx="331.68" cy="-170" fill="#000000" r="2"/>
<circle cx="332.16" cy="-170" fill="#000000" r="2"/>
<circle cx="332.64" cy="-170" fill="#000000" r="2"/>
<circle cx="333.12" cy="-170" fill="#000000" r="2"/>
<circle cx="333.6" cy="-170" fill="#000000" r="2"/>
<circle cx="334.08" cy="-170" fill="#000000" r="2"/>
<circle cx="334.56" cy="-170" fill="#000000" r="2"/>
<circle cx="335.04" cy="-170" fill="#000000" r="2"/>
<circle cx="335.52" cy="-170" fill="#000000" r="2"/>
<circle cx="336" cy="-170" fill="#000000" r="2"/>
<circle cx="336.48" cy="-170" fill="#000000" r="2"/>
<circle cx="336.96" cy="-170" fill="#000000" r="2"/>
<circle cx="337.44" cy="-170" fill="#000000" r="2"/>
<circle cx="337.92" cy="-170" fill="#000000" r="2"/>
<circle cx="338.4" cy="-170" fill="#000000" r="2"/>
<circle cx="338.88" cy="-170" fill="#000000" r="2"/>
<circle cx="339.36" cy="-170" fill="#000000" r="2"/>
<circle cx="339.84" cy="-170" fill="#000000" r="2"/>
<circle cx="340.32" cy="-170" fill="#000000" r="2"/>
<circle cx="340.8" cy="-170" fill="#000000" r="2"/>
<circle cx="341.28" cy="-170" fill="#000000" r="2"/>
<circle cx="341.76" cy="-170" fill="#000000" r="2"/>
<circle cx="342.24" cy="-170" fill="#000000" r="2"/>
<circle cx="342.72" cy="-170" fill="#000000" r="2"/>
<circle cx="343.2" cy="-170" fill="#000000" r="2"/>
<circle cx="343.68" cy="-170" fill="#000000" r="2"/>
<circle cx="344.16" cy="-170" fill="#000000" r="2"/>
<circle cx="344.64" cy="-170" fill="#000000" r="2"/>
<circle cx="345.12" cy="-170" fill="#000000" r="2"/>
<circle cx="345.6" cy="-170" fill="#000000" r="2"/>
<circle cx="346.08" cy="-170" fill="#000000" r="2"/>
<circle cx="346.56" cy="-170" fill="#000000" r="2"/>
<circle cx="347.04" cy="-170" fill="#000000" r="2"/>
<circle cx="347.52" cy="-170" fill="#000000" r="2"/>
<circle cx="348" cy="-170" fill="#000000" r="2"/>
<circle cx="348.48" cy="-170" fill="#000000" r="2"/>
<circle cx="348.96" cy="-170" fill="#000000" r="2"/>
<circle cx="349.44" cy="-170" fill="#000000" r="2"/>
<circle cx="349.92" cy="-170" fill="#000000" r="2"/>
<circle cx="350.4" cy="-170" fill="#000000" r="2"/>
<circle cx="350.88" cy="-170" fill="#000000" r="2"/>
<circle cx="351.36" cy="-170" fill="#000000" r="2"/>
<circle cx="351.84" cy="-170" fill="#000000" r="2"/>
<circle cx="352.32" cy="-170" fill="#000000" r="2"/>
<circle cx="352.8" cy="-170" fill="#000000" r="2"/>
<circle cx="353.28" cy="-170" fill="#000000" r="2"/>
<circle cx="353.76" cy="-170" fill="#000000" r="2"/>
<circle cx="354.24" cy="-170" fill="#000000" r="2"/>
<circle cx="354.72" cy="-170" fill="#000000" r="2"/>
<circle cx="355.2" cy="-170" fill="#000000" r="2"/>
<circle cx="355.68" cy="-170" fill="#000000" r="2"/>
<circle cx="356.16" cy="-170" fill="#000000" r="2"/>
<circle cx="356.64" cy="-170" fill="#000000" r="2"/>
<circle cx="357.12" cy="-170" fill="#000000" r="2"/>
<circle cx="357.6" cy="-170" fill="#000000" r="2"/>
<circle cx="358.08" cy="-170" fill="#000000" r="2"/>
<circle cx="358.56" cy="-170" fill="#000000" r="2"/>
<circle cx="359.04" cy="-170" fill="#000000" r="2"/>
<circle cx="359.52" cy="-170" fill="#000000" r="2"/>
<circle cx="360" cy="-170" fill="#000000" r="2"/>
<circle cx="360.48" cy="-170" fill="#000000" r="2"/>
<circle cx="360.96" cy="-170" fill="#000000" r="2"/>
<circle cx="361.44" cy="-170" fill="#000000" r="2"/>
<circle cx="361.92" cy="-170" fill="#000000" r="2"/>
<circle cx="362.4" cy="-170" fill="#000000" r="2"/>
<circle cx="362.88" cy="-170" fill="#000000" r="2"/>
<circle cx="363.36" cy="-170" fill="#000000" r="2"/>
<circle cx="363.84" cy="-170" fill="#000000" r="2"/>
<circle cx="364.32" cy="-170" fill="#000000" r="2"/>
<circle cx="364.8" cy="-170" fill="#000000" r="2"/>
<circle cx="365.28" cy="-170" fill="#000000" r="2"/>
<circle cx="365.76" cy="-170" fill="#000000" r="2"/>
<circle cx="366.24" cy="-170" fill="#000000" r="2"/>
<circle cx="366.72" cy="-170" fill="#000000" r="2"/>
<circle cx="367.2" cy="-170" fill="#000000" r="2"/>
<circle cx="367.68" cy="-170" fill="#000000" r="2"/>
<circle cx="368.16" cy="-170" fill="#000000" r="2"/>
<circle cx="368.64" cy="-170" fill="#000000" r="2"/>
<circle cx="369.12" cy="-170" fill="#000000" r="2"/>
<circle cx="369.6" cy="-170" fill="#000000" r="2"/>
<circle cx="370.08" cy="-170" fill="#000000" r="2"/>
<circle cx="370.56" cy="-170" fill="#000000" r="2"/>
<circle cx="371.04" cy="-170" fill="#000000" r="2"/>
<circle cx="371.52" cy="-170" fill="#000000" r="2"/>
<circle cx="372" cy="-170" fill="#000000" r="2"/>
<circle cx="372.48" cy="-170" fill="#000000" r="2"/>
<circle cx="372.96" cy="-170" fill="#000000" r="2"/>
<circle cx="373.44" cy="-170" fill="#000000" r="2"/>
<circle cx="373.92" cy="-170" fill="#000000" r="2"/>
<circle cx="374.4" cy="-170" fill="#000000" r="2"/>
<circle cx="374.88" cy="-170" fill="#000000" r="2"/>
<circle cx="375.36" cy="-170" fill="#000000" r="2"/>
<circle cx="375.84" cy="-170" fill="#000000" r="2"/>
<circle cx="376.32" cy="-170" fill="#000000" r="2"/>
<circle cx="376.8" cy="-170" fill="#000000" r="2"/>
<circle cx="377.28" cy="-170" fill="#000000" r="2"/>
<circle cx="377.76" cy="-170" fill="#000000" r="2"/>
<circle cx="378.24" cy="-170" fill="#000000" r="2"/>
<circle cx="378.72" cy="-170" fill="#000000" r="2"/>
<circle cx="379.2" cy="-170" fill="#000000" r="2"/>
<circle cx="379.68" cy="-170" fill="#000000" r="2"/>
<circle cx="380.16" cy="-170" fill="#000000" r="2"/>
<circle cx="380.64" cy="-170" fill="#000000" r="2"/>
<circle cx="381.12" cy="-170" fill="#000000" r="2"/>
<circle cx="381.6" cy="-170" fill="#000000" r="2"/>
<circle cx="382.08" cy="-170" fill="#000000" r="2"/>
<circle cx="382.56" cy="-170" fill="#000000" r="2"/>
<circle cx="383.04" cy="-170" fill="#000000" r="2"/>
<circle cx="383.52" cy="-170" fill="#000000" r="2"/>
<circle cx="384" cy="-170" fill="#000000" r="2"/>
<circle cx="384.48" cy="-170" fill="#000000" r="2"/>
<circle cx="384.96" cy="-170" fill="#000000" r="2"/>
<circle cx="385.44" cy="-170" fill="#000000" r="2"/>
<circle cx="385.92" cy="-170" fill="#000000" r="2"/>
<circle cx="386.4" cy="-170" fill="#000000" r="2"/>
<circle cx="386.88" cy="-170" fill="#000000" r="2"/>
<circle cx="387.36" cy="-170" fill="#000000" r="2"/>
<circle cx="387.84" cy="-170" fill="#000000" r="2"/>
<circle cx="388.32" cy="-170" fill="#000000" r="2"/>
<circle cx="388.8" cy="-170" fill="#000000" r="2"/>
<circle cx="389.28" cy="-170" fill="#000000" r="2"/>
<circle cx="389.76" cy="-170" fill="#000000" r="2"/>
<circle cx="390.24" cy="-170" fill="#000000" r="2"/>
<circle cx="390.72" cy="-170" fill="#000000" r="2"/>
<circle cx="391.2" cy="-170" fill="#000000" r="2"/>
<circle cx="391.68" cy="-170" fill="#000000" r="2"/>
<circle cx="392.16" cy="-170" fill="#000000" r="2"/>
<circle cx="392.64" cy="-170" fill="#000000" r="2"/>
<circle cx="393.12" cy="-170" fill="#000000" r="2"/>
<circle cx="393.6" cy="-170" fill="#000000" r="2"/>
<circle cx="394.08" cy="-170" fill="#000000" r="2"/>
<circle cx="394.56" cy="-170" fill="#000000" r="2"/>
<circle cx="395.04" cy="-170" fill="#000000" r="2"/>
<circle cx="395.52" cy="-170" fill="#000000" r="2"/>
<circle cx="396" cy="-170" fill="#000000" r="2"/>
<circle cx="396.48" cy="-170" fill="#000000" r="2"/>
<circle cx="396.96" cy="-170" fill="#000000" r="2"/>
<circle cx="397.44" cy="-170" fill="#000000" r="2"/>
<circle cx="397.92" cy="-170" fill="#000000" r="2"/>
<circle cx="398.4" cy="-170" fill="#000000" r="2"/>
<circle cx="398.88" cy="-170" fill="#000000" r="2"/>
<circle cx="399.36" cy="-170" fill="#000000" r="2"/>
<circle cx="399.84" cy="-170" fill="#000000" r="2"/>
<circle cx="400.32" cy="-170" fill="#000000" r="2"/>
<circle cx="400.8" cy="-170" fill="#000000" r="2"/>
<circle cx="401.28" cy="-170" fill="#000000" r="2"/>
<circle cx="401.76" cy="-170" fill="#000000" r="2"/>
<circle cx="402.24" cy="-170" fill="#000000" r="2"/>
<circle cx="402.72" cy="-170" fill="#000000" r="2"/>
<circle cx="403.2" cy="-170" fill="#000000" r="2"/>
<circle cx="403.68" cy="-170" fill="#000000" r="2"/>
<circle cx="404.16" cy="-170" fill="#000000" r="2"/>
<circle cx="404.64" cy="-170" fill="#000000" r="2"/>
<circle cx="405.12" cy="-170" fill="#000000" r="2"/>
<circle cx="405.6" cy="-170" fill="#000000" r="2"/>
<circle cx="406.08" cy="-170" fill="#000000" r="2"/>
<circle cx="406.56" cy="-170" fill="#000000" r="2"/>
<circle cx="407.04" cy="-170" fill="#000000" r="2"/>
<circle cx="407.52" cy="-170" fill="#000000" r="2"/>
<circle cx="408" cy="-170" fill="#000000" r="2"/>
<circle cx="408.48" cy="-170" fill="#000000" r="2"/>
<circle cx="408.96" cy="-170" fill="#000000" r="2"/>
<circle cx="409.44" cy="-170" fill="#000000" r="2"/>
<circle cx="409.92" cy="-170" fill="#000000" r="2"/>
<circle cx="410.4" cy="-170" fill="#000000" r="2"/>
<circle cx="410.88" cy="-170" fill="#000000" r="2"/>
<circle cx="411.36" cy="-170" fill="#000000" r="2"/>
<circle cx="411.84" cy="-170" fill="#000000" r="2"/>
<circle cx="412.32" cy="-170" fill="#000000" r="2"/>
<circle cx="412.8" cy="-170" fill="#000000" r="2"/>
<circle cx="413.28" cy="-170" fill="#000000" r="2"/>
<circle cx="413.76" cy="-170" fill="#000000" r="2"/>
<circle cx="414.24" cy="-170" fill="#000000" r="2"/>
<circle cx="414.72" cy="-170" fill="#000000" r="2"/>
<circle cx="415.2" cy="-170" fill="#000000" r="2"/>
<circle cx="415.68" cy="-170" fill="#000000" r="2"/>
<circle cx="416.16" cy="-170" fill="#000000" r="2"/>
<circle cx="416.64" cy="-170" fill="#000000" r="2"/>
<circle cx="417.12" cy="-170" fill="#000000" r="2"/>
<circle cx="417.6" cy="-170" fill="#000000" r="2"/>
<circle cx="418.08" cy="-170" fill="#000000" r="2"/>
<circle cx="418.56" cy="-170" fill="#000000" r="2"/>
<circle cx="419.04" cy="-170" fill="#000000" r="2"/>
<circle cx="419.52" cy="-170" fill="#000000" r="2"/>
<circle cx="420" cy="-170" fill="#000000" r="2"/>
<circle cx="420.48" cy="-170" fill="#000000" r="2"/>
<circle cx="420.96" cy="-170" fill="#000000" r="2"/>
<circle cx="421.44" cy="-170" fill="#000000" r="2"/>
<circle cx="421.92" cy="-170" fill="#000000" r="2"/>
<circle cx="422.4" cy="-170" fill="#000000" r="2"/>
<circle cx="422.88" cy="-170" fill="#000000" r="2"/>
<circle cx="423.36" cy="-170" fill="#000000" r="2"/>
<circle cx="423.84" cy="-170" fill="#000000" r="2"/>
<circle cx="424.32" cy="-170" fill="#000000" r="2"/>
<circle cx="424.8" cy="-170" fill="#000000" r="2"/>
<circle cx="425.28" cy="-170" fill="#000000" r="2"/>
<circle cx="425.76" cy="-170" fill="#000000" r="2"/>
<circle cx="426.24" cy="-170" fill="#000000" r="2"/>
<circle cx="426.72" cy="-170" fill="#000000" r="2"/>
<circle cx="427.2" cy="-170" fill="#000000" r="2"/>
<circle cx="427.68" cy="-170" fill="#000000" r="2"/>
<circle cx="428.16" cy="-170" fill="#000000" r="2"/>
<circle cx="428.64" cy="-170" fill="#000000" r="2"/>
<circle cx="429.12" cy="-170" fill="#000000" r="2"/>
<circle cx="429.6" cy="-170" fill="#000000" r="2"/>
<circle cx="430.08" cy="-170" fill="#000000" r="2"/>
<circle cx="430.56" cy="-170" fill="#000000" r="2"/>
<circle cx="431.04" cy="-170" fill="#000000" r="2"/>
<circle cx="431.52" cy="-170" fill="#000000" r="2"/>
<circle cx="432" cy="-170" fill="#000000" r="2"/>
<circle cx="432.48" cy="-170" fill="#000000" r="2"/>
<circle cx="432.96" cy="-170" fill="#000000" r="2"/>
<circle cx="433.44" cy="-170" fill="#000000" r="2"/>
<circle cx="433.92" cy="-170" fill="#000000" r="2"/>
<circle cx="434.4" cy="-170" fill="#000000" r="2"/>
<circle cx="434.88" cy="-170" fill="#000000" r="2"/>
<circle cx="435.36" cy="-170" fill="#000000" r="2"/>
<circle cx="435.84" cy="-170" fill="#000000" r="2"/>
<circle cx="436.32" cy="-170" fill="#000000" r="2"/>
<circle cx="436.8" cy="-170" fill="#000000" r="2"/>
<circle cx="437.28" cy="-170" fill="#000000" r="2"/>
<circle cx="437.76" cy="-170" fill="#000000" r="2"/>
<circle cx="438.24" cy="-170" fill="#000000" r="2"/>
<circle cx="438.72" cy="-170" fill="#000000" r="2"/>
<circle cx="439.2" cy="-170" fill="#000000" r="2"/>
<circle cx="439.68" cy="-170" fill="#000000" r="2"/>
<circle cx="440.16" cy="-170" fill="#000000" r="2"/>
<circle cx="440.64" cy="-170" fill="#000000" r="2"/>
<circle cx="441.12" cy="-170" fill="#000000" r="2"/>
<circle cx="441.6" cy="-170" fill="#000000" r="2"/>
<circle cx="442.08" cy="-170" fill="#000000" r="2"/>
<circle cx="442.56" cy="-170" fill="#000000" r="2"/>
<circle cx="443.04" cy="-170" fill="#000000" r="2"/>
<circle cx="443.52" cy="-170" fill="#000000" r="2"/>
<circle cx="444" cy="-170" fill="#000000" r="2"/>
<circle cx="444.48" cy="-170" fill="#000000" r="2"/>
<circle cx="444.96" cy="-170" fill="#000000" r="2"/>
<circle cx="445.44" cy="-170" fill="#000000" r="2"/>
<circle cx="445.92" cy="-170" fill="#000000" r="2"/>
<circle cx="446.4" cy="-170" fill="#000000" r="2"/>
<circle cx="446.88" cy="-170" fill="#000000" r="2"/>
<circle cx="447.36" cy="-170" fill="#000000" r="2"/>
<circle cx="447.84" cy="-170" fill="#000000" r="2"/>
<circle cx="448.32" cy="-170" fill="#000000" r="2"/>
<circle cx="448.8" cy="-170" fill="#000000" r="2"/>
<circle cx="449.28" cy="-170" fill="#000000" r="2"/>
<circle cx="449.76" cy="-170" fill="#000000" r="2"/>
<circle cx="450.24" cy="-170" fill="#000000" r="2"/>
<circle cx="450.72" cy="-170" fill="#000000" r="2"/>
<circle cx="451.2" cy="-170" fill="#000000" r="2"/>
<circle cx="451.68" cy="-170" fill="#000000" r="2"/>
<circle cx="452.16" cy="-170" fill="#000000" r="2"/>
<circle cx="452.64" cy="-170" fill="#000000" r="2"/>
<circle cx="453.12" cy="-170" fill="#000000" r="2"/>
<circle cx="453.6" cy="-170" fill="#000000" r="2"/>
<circle cx="454.08" cy="-170" fill="#000000" r="2"/>
<circle cx="454.56" cy="-170" fill="#000000" r="2"/>
<circle cx="455.04" cy="-170" fill="#000000" r="2"/>
<circle cx="455.52" cy="-170" fill="#000000" r="2"/>
<circle cx="456" cy="-170" fill="#000000" r="2"/>
<circle cx="456.48" cy="-170" fill="#000000" r="2"/>
<circle cx="456.96" cy="-170" fill="#000000" r="2"/>
<circle cx="457.44" cy="-170" fill="#000000" r="2"/>
<circle cx="457.92" cy="-170" fill="#000000" r="2"/>
<circle cx="458.4" cy="-170" fill="#000000" r="2"/>
<circle cx="458.88" cy="-170" fill="#000000" r="2"/>
<circle cx="459.36" cy="-170" fill="#000000" r="2"/>
<circle cx="459.84" cy="-170" fill="#000000" r="2"/>
<circle cx="460.32" cy="-170" fill="#000000" r="2"/>
<circle cx="460.8" cy="-170" fill="#000000" r="2"/>
<circle cx="461.28" cy="-170" fill="#000000" r="2"/>
<circle cx="461.76" cy="-170" fill="#000000" r="2"/>
<circle cx="462.24" cy="-170" fill="#000000" r="2"/>
<circle cx="462.72" cy="-170" fill="#000000" r="2"/>
<circle cx="463.2" cy="-170" fill="#000000" r="2"/>
<circle cx="463.68" cy="-170" fill="#000000" r="2"/>
<circle cx="464.16" cy="-170" fill="#000000" r="2"/>
<circle cx="464.64" cy="-170" fill="#000000" r="2"/>
<circle cx="465.12" cy="-170" fill="#000000" r="2"/>
<circle cx="465.6" cy="-170" fill="#000000" r="2"/>
<circle cx="466.08" cy="-170" fill="#000000" r="2"/>
<circle cx="466.56" cy="-170" fill="#000000" r="2"/>
<circle cx="467.04" cy="-170" fill="#000000" r="2"/>
<circle cx="467.52" cy="-170" fill="#000000" r="2"/>
<circle cx="468" cy="-170" fill="#000000" r="2"/>
<circle cx="468.48" cy="-170" fill="#000000" r="2"/>
<circle cx="468.96" cy="-170" fill="#000000" r="2"/>
<circle cx="469.44" cy="-170" fill="#000000" r="2"/>
<circle cx="469.92" cy="-170" fill="#000000" r="2"/>
<circle cx="470.4" cy="-170" fill="#000000" r="2"/>
<circle cx="470.88" cy="-170" fill="#000000" r="2"/>
<circle cx="471.36" cy="-170" fill="#000000" r="2"/>
<circle cx="471.84" cy="-170" fill="#000000" r="2"/>
<circle cx="472.32" cy="-170" fill="#000000" r="2"/>
<circle cx="472.8" cy="-170" fill="#000000" r="2"/>
<circle cx="473.28" cy="-170" fill="#000000" r="2"/>
<circle cx="473.76" cy="-170" fill="#000000" r="2"/>
<circle cx="474.24" cy="-170" fill="#000000" r="2"/>
<circle cx="474.72" cy="-170" fill="#000000" r="2"/>
<circle cx="475.2" cy="-170" fill="#000000" r="2"/>
<circle cx="475.68" cy="-170" fill="#000000" r="2"/>
<circle cx="476.16" cy="-170" fill="#000000" r="2"/>
<circle cx="476.64" cy="-170" fill="#000000" r="2"/>
<circle cx="477.12" cy="-170" fill="#000000" r="2"/>
<circle cx="477.6" cy="-170" fill="#000000" r="2"/>
<circle cx="478.08" cy="-170" fill="#000000" r="2"/>
<circle cx="478.56" cy="-170" fill="#000000" r="2"/>
<circle cx="479.04" cy="-170" fill="#000000" r="2"/>
<circle cx="479.52" cy="-170" fill="#000000" r="2"/>
</g>
</g>
<g>
<g>
<path d="M0,-0 L0,-0 L0.48,-86.385506 L0.96,-87.05442 L1.44,-130.91075 L1.92,-131.55792 L2.4,-153.7936 L2.88,-154.24684 L3.36,-165.4907 L3.84,-165.7534 L4.32,-171.40932 L4.8,-171.52939 L5.28,-174.34511 L5.76,-174.37038 L6.24,-175.74327 L6.72,-175.70996 L7.2,-176.35072 L7.68,-176.28326 L8.16,-176.55339 L8.64,-176.46724 L9.12,-176.55055 L9.6,-176.45508 L10.08,-176.44508 L10.56,-176.34578 L11.04,-176.29002 L11.52,-176.19006 L12,-176.11267 L12.48,-176.01376 L12.96,-175.92697 L13.44,-175.8301 L13.92,-175.74005 L14.4,-175.64569 L14.88,-175.55551 L15.36,-175.4639 L15.84,-175.37509 L16.32,-175.28629 L16.8,-175.1996 L17.28,-175.11359 L17.76,-175.02933 L18.24,-174.9461 L18.72,-174.86441 L19.2,-174.78387 L19.68,-174.70476 L20.16,-174.62686 L20.64,-174.5503 L21.12,-174.47493 L21.6,-174.40085 L22.08,-174.32794 L22.56,-174.25629 L23.04,-174.18579 L23.52,-174.11647 L24,-174.0483 L24.48,-173.98125 L24.96,-173.91531 L25.44,-173.85046 L25.92,-173.78668 L26.4,-173.72397 L26.88,-173.6623 L27.36,-173.60162 L27.84,-173.54199 L28.32,-173.4833 L28.8,-173.42563 L29.28,-173.36888 L29.76,-173.3131 L30.24,-173.25822 L30.72,-173.20427 L31.2,-173.15118 L31.68,-173.099 L32.16,-173.04767 L32.64,-172.9972 L33.12,-172.94756 L33.6,-172.89874 L34.08,-172.85072 L34.56,-172.80351 L35.04,-172.75708 L35.52,-172.71141 L36,-172.6665 L36.48,-172.62233 L36.96,-172.5789 L37.44,-172.53618 L37.92,-172.49417 L38.4,-172.45287 L38.88,-172.41223 L39.36,-172.37228 L39.84,-172.333 L40.32,-172.29436 L40.8,-172.25635 L41.28,-172.21898 L41.76,-172.18224 L42.24,-172.14609 L42.72,-172.11055 L43.2,-172.0756 L43.68,-172.04121 L44.16,-172.00742 L44.64,-171.97415 L45.12,-171.94145 L45.6,-171.9093 L46.08,-171.87769 L46.56,-171.84659 L47.04,-171.816 L47.52,-171.78592 L48,-171.75635 L48.48,-171.72726 L48.96,-171.69864 L49.44,-171.67052 L49.92,-171.64284 L50.4,-171.61563 L50.88,-171.58887 L51.36,-171.56256 L51.84,-171.53668 L52.32,-171.51123 L52.8,-171.48619 L53.28,-171.46158 L53.76,-171.43738 L54.24,-171.41356 L54.72,-171.39015 L55.2,-171.36713 L55.68,-171.34448 L56.16,-171.32222 L56.64,-171.30032 L57.12,-171.2788 L57.6,-171.2576 L58.08,-171.23677 L58.56,-171.2163 L59.04,-171.19614 L59.52,-171.17633 L60,-171.15685 L60.48,-171.1377 L60.96,-171.11885 L61.44,-171.10033 L61.92,-171.0821 L62.4,-171.06416 L62.88,-171.04654 L63.36,-171.02922 L63.84,-171.01218 L64.32,-170.9954 L64.8,-170.97893 L65.28,-170.9627 L65.76,-170.94676 L66.24,-170.93108 L66.72,-170.91566 L67.2,-170.90048 L67.68,-170.88557 L68.16,-170.8709 L68.64,-170.85648 L69.12,-170.84229 L69.6,-170.82834 L70.08,-170.81462 L70.56,-170.80113 L71.04,-170.78786 L71.52,-170.77481 L72,-170.762 L72.48,-170.74936 L72.96,-170.73695 L73.44,-170.72475 L73.92,-170.71275 L74.4,-170.70094 L74.88,-170.68933 L75.36,-170.67792 L75.84,-170.66669 L76.32,-170.65565 L76.8,-170.64479 L77.28,-170.6341 L77.76,-170.6236 L78.24,-170.61327 L78.72,-170.60312 L79.2,-170.59314 L79.68,-170.58331 L80.16,-170.57364 L80.64,-170.56415 L81.12,-170.55481 L81.6,-170.54561 L82.08,-170.53659 L82.56,-170.52768 L83.04,-170.51895 L83.52,-170.51035 L84,-170.5019 L84.48,-170.49359 L84.96,-170.48541 L85.44,-170.47737 L85.92,-170.46947 L86.4,-170.46169 L86.88,-170.45403 L87.36,-170.4465 L87.84,-170.43912 L88.32,-170.43185 L88.8,-170.4247 L89.28,-170.41766 L89.76,-170.41074 L90.24,-170.40395 L90.72,-170.39725 L91.2,-170.39067 L91.68,-170.3842 L92.16,-170.37785 L92.64,-170.37158 L93.12,-170.36543 L93.6,-170.35938 L94.08,-170.35342 L94.56,-170.34758 L95.04,-170.34183 L95.52,-170.33617 L96,-170.33058 L96.48,-170.3251 L96.96,-170.31973 L97.44,-170.31442 L97.92,-170.30922 L98.4,-170.3041 L98.88,-170.29906 L99.36,-170.29411 L99.84,-170.28923 L100.32,-170.28445 L100.8,-170.27972 L101.28,-170.27509 L101.76,-170.27054 L102.24,-170.26607 L102.72,-170.26166 L103.2,-170.25732 L103.68,-170.25307 L104.16,-170.24887 L104.64,-170.24477 L105.12,-170.2407 L105.6,-170.23672 L106.08,-170.23279 L106.56,-170.22894 L107.04,-170.22514 L107.52,-170.22142 L108,-170.21774 L108.48,-170.21414 L108.96,-170.21059 L109.44,-170.20709 L109.92,-170.20367 L110.4,-170.2003 L110.88,-170.19698 L111.36,-170.19373 L111.84,-170.1905 L112.32,-170.18735 L112.8,-170.18425 L113.28,-170.18121 L113.76,-170.1782 L114.24,-170.17526 L114.72,-170.17235 L115.2,-170.1695 L115.68,-170.1667 L116.16,-170.16393 L116.64,-170.16122 L117.12,-170.15854 L117.6,-170.15591 L118.08,-170.15334 L118.56,-170.15079 L119.04,-170.1483 L119.52,-170.14583 L120,-170.14342 L120.48,-170.14105 L120.96,-170.13872 L121.44,-170.13641 L121.92,-170.13416 L122.4,-170.13194 L122.88,-170.12975 L123.36,-170.1276 L123.84,-170.12549 L124.32,-170.12341 L124.8,-170.12137 L125.28,-170.11935 L125.76,-170.11737 L126.24,-170.11543 L126.72,-170.11353 L127.2,-170.11163 L127.68,-170.10979 L128.16,-170.10797 L128.64,-170.10619 L129.12,-170.10443 L129.6,-170.10269 L130.08,-170.10098 L130.56,-170.09932 L131.04,-170.09769 L131.52,-170.09605 L132,-170.09447 L132.48,-170.0929 L132.96,-170.09135 L133.44,-170.08984 L133.92,-170.08836 L134.4,-170.0869 L134.88,-170.08545 L135.36,-170.08405 L135.84,-170.08266 L136.32,-170.08128 L136.8,-170.07994 L137.28,-170.07861 L137.76,-170.07732 L138.24,-170.07603 L138.72,-170.07477 L139.2,-170.07355 L139.68,-170.07233 L140.16,-170.07112 L140.64,-170.06995 L141.12,-170.06879 L141.6,-170.06764 L142.08,-170.06651 L142.56,-170.06541 L143.04,-170.06433 L143.52,-170.06326 L144,-170.06223 L144.48,-170.06119 L144.96,-170.06018 L145.44,-170.05917 L145.92,-170.0582 L146.4,-170.05724 L146.88,-170.05629 L147.36,-170.05534 L147.84,-170.05444 L148.32,-170.05353 L148.8,-170.05266 L149.28,-170.05179 L149.76,-170.05092 L150.24,-170.05008 L150.72,-170.04926 L151.2,-170.04845 L151.68,-170.04764 L152.16,-170.04684 L152.64,-170.04607 L153.12,-170.0453 L153.6,-170.04456 L154.08,-170.04381 L154.56,-170.04309 L155.04,-170.04237 L155.52,-170.04169 L156,-170.04099 L156.48,-170.0403 L156.96,-170.03964 L157.44,-170.03897 L157.92,-170.03833 L158.4,-170.03769 L158.88,-170.03708 L159.36,-170.03647 L159.84,-170.03586 L160.32,-170.03526 L160.8,-170.03468 L161.28,-170.03412 L161.76,-170.03354 L162.24,-170.03299 L162.72,-170.03244 L163.2,-170.0319 L163.68,-170.03137 L164.16,-170.03085 L164.64,-170.03033 L165.12,-170.02983 L165.6,-170.02934 L166.08,-170.02885 L166.56,-170.02838 L167.04,-170.02792 L167.52,-170.02745 L168,-170.027 L168.48,-170.02654 L168.96,-170.02611 L169.44,-170.02567 L169.92,-170.02524 L170.4,-170.02483 L170.88,-170.02441 L171.36,-170.02402 L171.84,-170.02362 L172.32,-170.02324 L172.8,-170.02284 L173.28,-170.02248 L173.76,-170.0221 L174.24,-170.02173 L174.72,-170.02136 L175.2,-170.02101 L175.68,-170.02068 L176.16,-170.02032 L176.64,-170.01999 L177.12,-170.01967 L177.6,-170.01935 L178.08,-170.01901 L178.56,-170.01869 L179.04,-170.01839 L179.52,-170.01808 L180,-170.01779 L180.48,-170.01749 L180.96,-170.0172 L181.44,-170.0169 L181.92,-170.01663 L182.4,-170.01636 L182.88,-170.01608 L183.36,-170.01582 L183.84,-170.01556 L184.32,-170.0153 L184.8,-170.01505 L185.28,-170.0148 L185.76,-170.01456 L186.24,-170.01431 L186.72,-170.01407 L187.2,-170.01384 L187.68,-170.01361 L188.16,-170.0134 L188.64,-170.01317 L189.12,-170.01295 L189.6,-170.01273 L190.08,-170.01251 L190.56,-170.0123 L191.04,-170.01212 L191.52,-170.0119 L192,-170.0117 L192.48,-170.0115 L192.96,-170.01132 L193.44,-170.01114 L193.92,-170.01096 L194.4,-170.01079 L194.88,-170.0106 L195.36,-170.01042 L195.84,-170.01025 L196.32,-170.01009 L196.8,-170.0099 L197.28,-170.00975 L197.76,-170.00958 L198.24,-170.00941 L198.72,-170.00928 L199.2,-170.00911 L199.68,-170.00897 L200.16,-170.00882 L200.64,-170.00867 L201.12,-170.00853 L201.6,-170.00838 L202.08,-170.00826 L202.56,-170.0081 L203.04,-170.00798 L203.52,-170.00784 L204,-170.00772 L204.48,-170.00758 L204.96,-170.00746 L205.44,-170.00732 L205.92,-170.00722 L206.4,-170.0071 L206.88,-170.00699 L207.36,-170.00687 L207.84,-170.00676 L208.32,-170.00665 L208.8,-170.00653 L209.28,-170.00642 L209.76,-170.0063 L210.24,-170.00621 L210.72,-170.00612 L211.2,-170.00601 L211.68,-170.00592 L212.16,-170.00581 L212.64,-170.00572 L213.12,-170.00563 L213.6,-170.00552 L214.08,-170.00543 L214.56,-170.00534 L215.04,-170.00525 L215.52,-170.00517 L216,-170.0051 L216.48,-170.005 L216.96,-170.00493 L217.44,-170.00485 L217.92,-170.00476 L218.4,-170.00468 L218.88,-170.00461 L219.36,-170.00452 L219.84,-170.00444 L220.32,-170.00438 L220.8,-170.0043 L221.28,-170.00423 L221.76,-170.00415 L222.24,-170.00409 L222.72,-170.00403 L223.2,-170.00395 L223.68,-170.00389 L224.16,-170.00383 L224.64,-170.00375 L225.12,-170.0037 L225.6,-170.00363 L226.08,-170.00357 L226.56,-170.00352 L227.04,-170.00345 L227.52,-170.0034 L228,-170.00334 L228.48,-170.0033 L228.96,-170.00322 L229.44,-170.00317 L229.92,-170.00313 L230.4,-170.00308 L230.88,-170.00304 L231.36,-170.00299 L231.84,-170.00293 L232.32,-170.00288 L232.8,-170.00284 L233.28,-170.00279 L233.76,-170.00275 L234.24,-170.00269 L234.72,-170.00264 L235.2,-170.0026 L235.68,-170.00256 L236.16,-170.00252 L236.64,-170.00249 L237.12,-170.00243 L237.6,-170.0024 L238.08,-170.00235 L238.56,-170.00232 L239.04,-170.00227 L239.52,-170.00224 L240,-170.0022 L240.48,-170.00217 L240.96,-170.00214 L241.44,-170.0021 L241.92,-170.00208 L242.4,-170.00204 L242.88,-170.00201 L243.36,-170.00198 L243.84,-170.00195 L244.32,-170.0019 L244.8,-170.00188 L245.28,-170.00185 L245.76,-170.00182 L246.24,-170.00179 L246.72,-170.00175 L247.2,-170.00172 L247.68,-170.00168 L248.16,-170.00165 L248.64,-170.00162 L249.12,-170.00159 L249.6,-170.00157 L250.08,-170.00154 L250.56,-170.00153 L251.04,-170.0015 L251.52,-170.00148 L252,-170.00145 L252.48,-170.00143 L252.96,-170.00139 L253.44,-170.00137 L253.92,-170.00134 L254.4,-170.00133 L254.88,-170.00131 L255.36,-170.0013 L255.84,-170.00127 L256.32,-170.00125 L256.8,-170.00124 L257.28,-170.00122 L257.76,-170.00119 L258.24,-170.00116 L258.72,-170.00114 L259.2,-170.00113 L259.68,-170.00111 L260.16,-170.0011 L260.64,-170.00108 L261.12,-170.00107 L261.6,-170.00105 L262.08,-170.00104 L262.56,-170.00102 L263.04,-170.001 L263.52,-170.00099 L264,-170.00098 L264.48,-170.00096 L264.96,-170.00095 L265.44,-170.00093 L265.92,-170.00092 L266.4,-170.00089 L266.88,-170.00087 L267.36,-170.00085 L267.84,-170.00084 L268.32,-170.00082 L268.8,-170.00081 L269.28,-170.0008 L269.76,-170.00078 L270.24,-170.00076 L270.72,-170.00075 L271.2,-170.00073 L271.68,-170.00072 L272.16,-170.00072 L272.64,-170.0007 L273.12,-170.00069 L273.6,-170.00067 L274.08,-170.00067 L274.56,-170.00064 L275.04,-170.00064 L275.52,-170.00063 L276,-170.00063 L276.48,-170.00061 L276.96,-170.0006 L277.44,-170.00058 L277.92,-170.00058 L278.4,-170.00056 L278.88,-170.00056 L279.36,-170.00055 L279.84,-170.00055 L280.32,-170.00053 L280.8,-170.00053 L281.28,-170.00052 L281.76,-170.00052 L282.24,-170.0005 L282.72,-170.0005 L283.2,-170.00049 L283.68,-170.00049 L284.16,-170.00047 L284.64,-170.00047 L285.12,-170.00046 L285.6,-170.00046 L286.08,-170.00044 L286.56,-170.00044 L287.04,-170.00043 L287.52,-170.00043 L288,-170.00041 L288.48,-170.00041 L288.96,-170.0004 L289.44,-170.0004 L289.92,-170.00037 L290.4,-170.00037 L290.88,-170.00037 L291.36,-170.00037 L291.84,-170.00035 L292.32,-170.00035 L292.8,-170.00034 L293.28,-170.00034 L293.76,-170.00034 L294.24,-170.00034 L294.72,-170.00032 L295.2,-170.00032 L295.68,-170.0003 L296.16,-170.0003 L296.64,-170.0003 L297.12,-170.0003 L297.6,-170.00029 L298.08,-170.00029 L298.56,-170.00029 L299.04,-170.00029 L299.52,-170.00027 L300,-170.00027 L300.48,-170.00026 L300.96,-170.00026 L301.44,-170.00026 L301.92,-170.00026 L302.4,-170.00026 L302.88,-170.00026 L303.36,-170.00024 L303.84,-170.00024 L304.32,-170.00023 L304.8,-170.00023 L305.28,-170.00023 L305.76,-170.00023 L306.24,-170.00023 L306.72,-170.00023 L307.2,-170.00021 L307.68,-170.00021 L308.16,-170.00021 L308.64,-170.00021 L309.12,-170.00021 L309.6,-170.0002 L310.08,-170.0002 L310.56,-170.0002 L311.04,-170.0002 L311.52,-170.0002 L312,-170.00018 L312.48,-170.00018 L312.96,-170.00018 L313.44,-170.00018 L313.92,-170.00018 L314.4,-170.00018 L314.88,-170.00017 L315.36,-170.00017 L315.84,-170.00017 L316.32,-170.00017 L316.8,-170.00017 L317.28,-170.00017 L317.76,-170.00015 L318.24,-170.00015 L318.72,-170.00015 L319.2,-170.00015 L319.68,-170.00015 L320.16,-170.00015 L320.64,-170.00015 L321.12,-170.00012 L321.6,-170.00012 L322.08,-170.00012 L322.56,-170.00012 L323.04,-170.00012 L323.52,-170.00012 L324,-170.00012 L324.48,-170.00012 L324.96,-170.0001 L325.44,-170.0001 L325.92,-170.0001 L326.4,-170.0001 L326.88,-170.0001 L327.36,-170.0001 L327.84,-170.0001 L328.32,-170.0001 L328.8,-170.00009 L329.28,-170.00009 L329.76,-170.00009 L330.24,-170.00009 L330.72,-170.00009 L331.2,-170.00009 L331.68,-170.00009 L332.16,-170.00009 L332.64,-170.00009 L333.12,-170.00009 L333.6,-170.00009 L334.08,-170.00008 L334.56,-170.00008 L335.04,-170.00008 L335.52,-170.00008 L336,-170.00008 L336.48,-170.00008 L336.96,-170.00008 L337.44,-170.00008 L337.92,-170.00008 L338.4,-170.00008 L338.88,-170.00008 L339.36,-170.00008 L339.84,-170.00008 L340.32,-170.00006 L340.8,-170.00006 L341.28,-170.00006 L341.76,-170.00006 L342.24,-170.00006 L342.72,-170.00006 L343.2,-170.00006 L343.68,-170.00006 L344.16,-170.00006 L344.64,-170.00006 L345.12,-170.00006 L345.6,-170.00006 L346.08,-170.00006 L346.56,-170.00006 L347.04,-170.00006 L347.52,-170.00005 L348,-170.00005 L348.48,-170.00005 L348.96,-170.00005 L349.44,-170.00005 L349.92,-170.00005 L350.4,-170.00005 L350.88,-170.00005 L351.36,-170.00005 L351.84,-170.00005 L352.32,-170.00005 L352.8,-170.00005 L353.28,-170.00005 L353.76,-170.00005 L354.24,-170.00005 L354.72,-170.00005 L355.2,-170.00005 L355.68,-170.00005 L356.16,-170.00005 L356.64,-170.00005 L357.12,-170.00003 L357.6,-170.00003 L358.08,-170.00003 L358.56,-170.00003 L359.04,-170.00003 L359.52,-170.00003 L360,-170.00003 L360.48,-170.00003 L360.96,-170.00003 L361.44,-170.00003 L361.92,-170.00003 L362.4,-170.00003 L362.88,-170.00003 L363.36,-170.00003 L363.84,-170.00003 L364.32,-170.00003 L364.8,-170.00003 L365.28,-170.00003 L365.76,-170.00003 L366.24,-170.00003 L366.72,-170.00003 L367.2,-170.00003 L367.68,-170.00003 L368.16,-170.00003 L368.64,-170.00003 L369.12,-170.00003 L369.6,-170.00003 L370.08,-170.00003 L370.56,-170.00003 L371.04,-170.00003 L371.52,-170.00003 L372,-170.00003 L372.48,-170.00002 L372.96,-170.00002 L373.44,-170.00002 L373.92,-170.00002 L374.4,-170.00002 L374.88,-170.00002 L375.36,-170.00002 L375.84,-170.00002 L376.32,-170.00002 L376.8,-170.00002 L377.28,-170.00002 L377.76,-170.00002 L378.24,-170.00002 L378.72,-170.00002 L379.2,-170.00002 L379.68,-170.00002 L380.16,-170.00002 L380.64,-170.00002 L381.12,-170.00002 L381.6,-170.00002 L382.08,-170.00002 L382.56,-170.00002 L383.04,-170.00002 L383.52,-170.00002 L384,-170.00002 L384.48,-170.00002 L384.96,-170.00002 L385.44,-170.00002 L385.92,-170.00002 L386.4,-170.00002 L386.88,-170.00002 L387.36,-170.00002 L387.84,-170.00002 L388.32,-170.00002 L388.8,-170.00002 L389.28,-170.00002 L389.76,-170.00002 L390.24,-170.00002 L390.72,-170.00002 L391.2,-170.00002 L391.68,-170.00002 L392.16,-170.00002 L392.64,-170.00002 L393.12,-170.00002 L393.6,-170.00002 L394.08,-170.00002 L394.56,-170.00002 L395.04,-170.00002 L395.52,-170.00002 L396,-170.00002 L396.48,-170.00002 L396.96,-170.00002 L397.44,-170.00002 L397.92,-170.00002 L398.4,-170.00002 L398.88,-170.00002 L399.36,-170.00002 L399.84,-170.00002 L400.32,-170.00002 L400.8,-170.00002 L401.28,-170.00002 L401.76,-170.00002 L402.24,-170.00002 L402.72,-170 L403.2,-170 L403.68,-170 L404.16,-170 L404.64,-170 L405.12,-170 L405.6,-170 L406.08,-170 L406.56,-170 L407.04,-170 L407.52,-170 L408,-170 L408.48,-170 L408.96,-170 L409.44,-170 L409.92,-170 L410.4,-170 L410.88,-170 L411.36,-170 L411.84,-170 L412.32,-170 L412.8,-170 L413.28,-170 L413.76,-170 L414.24,-170 L414.72,-170 L415.2,-170 L415.68,-170 L416.16,-170 L416.64,-170 L417.12,-170 L417.6,-170 L418.08,-170 L418.56,-170 L419.04,-170 L419.52,-170 L420,-170 L420.48,-170 L420.96,-170 L421.44,-170 L421.92,-170 L422.4,-170 L422.88,-170 L423.36,-170 L423.84,-170 L424.32,-170 L424.8,-170 L425.28,-170 L425.76,-170 L426.24,-170 L426.72,-170 L427.2,-170 L427.68,-170 L428.16,-170 L428.64,-170 L429.12,-170 L429.6,-170 L430.08,-170 L430.56,-170 L431.04,-170 L431.52,-170 L432,-170 L432.48,-170 L432.96,-170 L433.44,-170 L433.92,-170 L434.4,-170 L434.88,-170 L435.36,-170 L435.84,-170 L436.32,-170 L436.8,-170 L437.28,-170 L437.76,-170 L438.24,-170 L438.72,-170 L439.2,-170 L439.68,-170 L440.16,-170 L440.64,-170 L441.12,-170 L441.6,-170 L442.08,-170 L442.56,-170 L443.04,-170 L443.52,-170 L444,-170 L444.48,-170 L444.96,-170 L445.44,-170 L445.92,-170 L446.4,-170 L446.88,-170 L447.36,-170 L447.84,-170 L448.32,-170 L448.8,-170 L449.28,-170 L449.76,-170 L450.24,-170 L450.72,-170 L451.2,-170 L451.68,-170 L452.16,-170 L452.64,-170 L453.12,-170 L453.6,-170 L454.08,-170 L454.56,-170 L455.04,-170 L455.52,-170 L456,-170 L456.48,-170 L456.96,-170 L457.44,-170 L457.92,-170 L458.4,-170 L458.88,-170 L459.36,-170 L459.84,-170 L460.32,-170 L460.8,-170 L461.28,-170 L461.76,-170 L462.24,-170 L462.72,-170 L463.2,-170 L463.68,-170 L464.16,-170 L464.64,-170 L465.12,-170 L465.6,-170 L466.08,-170 L466.56,-170 L467.04,-170 L467.52,-170 L468,-170 L468.48,-170 L468.96,-170 L469.44,-170 L469.92,-170 L470.4,-170 L470.88,-170 L471.36,-170 L471.84,-170 L472.32,-170 L472.8,-170 L473.28,-170 L473.76,-170 L474.24,-170 L474.72,-170 L475.2,-170 L475.68,-170 L476.16,-170 L476.64,-170 L477.12,-170 L477.6,-170 L478.08,-170 L478.56,-170 L479.04,-170 L479.52,-170" fill="none" stroke="#DD3355" stroke-linejoin="round" stroke-width="2"/>
</g>
</g>
<g>
<g>
<line stroke="black" stroke-width="1" x1="0" x2="0" y1="0" y2="10"/>
<line stroke="black" stroke-width="1" x1="96" x2="96" y1="0" y2="10"/>
<line stroke="black" stroke-width="1" x1="192" x2="192" y1="0" y2="10"/>
<line stroke="black" stroke-width="1" x1="288" x2="288" y1="0" y2="10"/>
<line stroke="black" stroke-width="1" x1="384" x2="384" y1="0" y2="10"/>
<line stroke="black" stroke-width="1" x1="480" x2="480" y1="0" y2="10"/>
</g>
<line stroke="black" stroke-width="1" x1="0" x2="480" y1="0" y2="0"/>
<g>
<text font-size="12" text-anchor="middle" x="0" y="20">
0
</text>
<text font-size="12" text-anchor="middle" x="96" y="20">
200
</text>
<text font-size="12" text-anchor="middle" x="192" y="20">
400
</text>
<text font-size="12" text-anchor="middle" x="288" y="20">
600
</text>
<text font-size="12" text-anchor="middle" x="384" y="20">
800
</text>
<text font-size="12" text-anchor="middle" x="480" y="20">
1000
</text>
</g>
<text font-size="12" text-anchor="middle" x="240" y="30">
Iteration
</text>
</g>
<g>
<g>
<line stroke="black" stroke-width="1" x1="0" x2="-10" y1="-0" y2="-0"/>
<line stroke="black" stroke-width="1" x1="0" x2="-10" y1="-68" y2="-68"/>
<line stroke="black" stroke-width="1" x1="0" x2="-10" y1="-136" y2="-136"/>
<line stroke="black" stroke-width="1" x1="0" x2="-10" y1="-204" y2="-204"/>
<line stroke="black" stroke-width="1" x1="0" x2="-10" y1="-272" y2="-272"/>
<line stroke="black" stroke-width="1" x1="0" x2="-10" y1="-340" y2="-340"/>
</g>
<line stroke="black" stroke-width="1" x1="0" x2="0" y1="0" y2="-340"/>
<g>
<text dominant-baseline="middle" font-size="12" text-anchor="end" x="-15" y="-0">
0
</text>
<text dominant-baseline="middle" font-size="12" text-anchor="end" x="-15" y="-68">
4
</text>
<text dominant-baseline="middle" font-size="12" text-anchor="end" x="-15" y="-136">
8
</text>
<text dominant-baseline="middle" font-size="12" text-anchor="end" x="-15" y="-204">
12
</text>
<text dominant-baseline="middle" font-size="12" text-anchor="end" x="-15" y="-272">
16
</text>
<text dominant-baseline="middle" font-size="12" text-anchor="end" x="-15" y="-340">
20
</text>
</g>
<text font-size="12" text-anchor="middle" transform="rotate(-90 -24 -170)" x="-24" y="-182">
Altitude Z
</text>
</g>
</g>
</svg>