<svg viewBox="0 0 600 400" xmlns="http://www.w3.org/2000/svg">
<g transform="translate(72, 364)">
<g>
<g>
<circle cx="0" cy="-170" fill="#000000" r="2"/>
<circle cx="7.2" cy="-170" fill="#000000" r="2"/>
<circle cx="14.4" cy="-170" fill="#000000" r="2"/>
<circle cx="21.6" cy="-170" fill="#000000" r="2"/>
<circle cx="28.8" cy="-170" fill="#000000" r="2"/>
<circle cx="36" cy="-170" fill="#000000" r="2"/>
<circle cx="43.2" cy="-170" fill="#000000" r="2"/>
<circle cx="50.4" cy="-170" fill="#000000" r="2"/>
<circle cx="57.6" cy="-170" fill="#000000" r="2"/>
<circle cx="64.8" cy="-170" fill="#000000" r="2"/>
<circle cx="72" cy="-170" fill="#000000" r="2"/>
<circle cx="79.2" cy="-170" fill="#000000" r="2"/>
<circle cx="86.4" cy="-170" fill="#000000" r="2"/>
<circle cx="93.6" cy="-170" fill="#000000" r="2"/>
<circle cx="100.8" cy="-170" fill="#000000" r="2"/>
<circle cx="108" cy="-170" fill="#000000" r="2"/>
<circle cx="115.2" cy="-170" fill="#000000" r="2"/>
<circle cx="122.4" cy="-170" fill="#000000" r="2"/>
<circle cx="129.6" cy="-170" fill="#000000" r="2"/>
<circle cx="136.8" cy="-170" fill="#000000" r="2"/>
<circle cx="144" cy="-170" fill="#000000" r="2"/>
<circle cx="151.2" cy="-170" fill="#000000" r="2"/>
<circle cx="158.4" cy="-170" fill="#000000" r="2"/>
<circle cx="165.6" cy="-170" fill="#000000" r="2"/>
<circle cx="172.8" cy="-170" fill="#000000" r="2"/>
<circle cx="180" cy="-170" fill="#000000" r="2"/>
<circle cx="187.2" cy="-170" fill="#000000" r="2"/>
<circle cx="194.4" cy="-170" fill="#000000" r="2"/>
<circle cx="201.6" cy="-170" fill="#000000" r="2"/>
<circle cx="208.8" cy="-170" fill="#000000" r="2"/>
<circle cx="216" cy="-170" fill="#000000" r="2"/>
<circle cx="223.2" cy="-170" fill="#000000" r="2"/>
<circle cx="230.4" cy="-170" fill="#000000" r="2"/>
<circle cx="237.6" cy="-170" fill="#000000" r="2"/>
<circle cx="244.8" cy="-170" fill="#000000" r="2"/>
<circle cx="252" cy="-170" fill="#000000" r="2"/>
<circle cx="259.2" cy="-170" fill="#000000" r="2"/>
<circle cx="266.4" cy="-170" fill="#000000" r="2"/>
<circle cx="273.6" cy="-170" fill="#000000" r="2"/>
<circle cx="280.8" cy="-170" fill="#000000" r="2"/>
<circle cx="288" cy="-170" fill="#000000" r="2"/>
<circle cx="295.2" cy="-170" fill="#000000" r="2"/>
<circle cx="302.4" cy="-170" fill="#000000" r="2"/>
<circle cx="309.6" cy="-170" fill="#000000" r="2"/>
<circle cx="316.8" cy="-170" fill="#000000" r="2"/>
<circle cx="324" cy="-170" fill="#000000" r="2"/>
<circle cx="331.2" cy="-170" fill="#000000" r="2"/>
<circle cx="338.4" cy="-170" fill="#000000" r="2"/>
<circle cx="345.6" cy="-170" fill="#000000" r="2"/>
<circle cx="352.8" cy="-170" fill="#000000" r="2"/>
<circle cx="360" cy="-170" fill="#000000" r="2"/>
<circle cx="367.2" cy="-170" fill="#000000" r="2"/>
<circle cx="374.4" cy="-170" fill="#000000" r="2"/>
<circle cx="381.6" cy="-170" fill="#000000" r="2"/>
<circle cx="388.8" cy="-170" fill="#000000" r="2"/>
<circle cx="396" cy="-170" fill="#000000" r="2"/>
<circle cx="403.2" cy="-170" fill="#000000" r="2"/>
<circle cx="410.4" cy="-170" fill="#000000" r="2"/>
<circle cx="417.6" cy="-170" fill="#000000" r="2"/>
<circle cx="424.8" cy="-170" fill="#000000" r="2"/>
<circle cx="432" cy="-170" fill="#000000" r="2"/>
<circle cx="439.2" cy="-170" fill="#000000" r="2"/>
<circle cx="446.4" cy="-170" fill="#000000" r="2"/>
<circle cx="453.6" cy="-170" fill="#000000" r="2"/>
<circle cx="460.8" cy="-170" fill="#000000" r="2"/>
<circle cx="468" cy="-170" fill="#000000" r="2"/>
<circle cx="475.2" cy="-170" fill="#000000" r="2"/>
</g>
</g>
<g>
<g>
<path d="M0,-0 L0,-0 L0.48,-0.33354014 L0.96,-1.0006205 L1.44,-2.001241 L1.92,-3.3354015 L2.4,-5.0031023 L2.88,-7.0043435 L3.36,-9.339125 L3.84,-12.007446 L4.32,-15.009308 L4.8,-18.344711 L5.28,-22.01365 L5.76,-26.016134 L6.24,-30.352158 L6.72,-35.02172 L7.2,-40.024822 L7.68,-45.361465 L8.16,-51.03165 L8.64,-57.035374 L9.12,-63.37264 L9.6,-70.04344 L10.08,-77.04779 L10.56,-84.385666 L11.04,-92.05709 L11.52,-100.06205 L12,-108.40055 L12.48,-117.0726 L12.96,-126.078186 L13.44,-135.41731 L13.92,-145.08997 L14.4,-153.09494 L14.88,-159.43219 L15.36,-164.10176 L15.84,-167.10362 L16.32,-168.43779 L16.8,-168.10425 L17.28,-168.10425 L17.76,-168.43779 L18.24,-169.10486 L18.72,-168.33528 L19.2,-167.89926 L19.68,-167.79675 L20.16,-168.0278 L20.64,-168.5924 L21.12,-168.7965 L21.6,-169.33414 L22.08,-168.65482 L22.56,-168.30904 L23.04,-168.2968 L23.52,-168.6181 L24,-169.27295 L24.48,-168.32158 L24.96,-167.70374 L25.44,-167.41943 L25.92,-167.46867 L26.4,-167.85146 L26.88,-168.5678 L27.36,-168.3487 L27.84,-168.46313 L28.32,-168.91112 L28.8,-169.05072 L29.28,-169.52386 L29.76,-168.7914 L30.24,-168.39246 L30.72,-168.32706 L31.2,-168.59518 L31.68,-169.19687 L32.16,-168.50389 L32.64,-168.14447 L33.12,-168.11858 L33.6,-168.42622 L34.08,-169.06741 L34.56,-168.42421 L35.04,-168.11456 L35.52,-168.13846 L36,-168.4959 L36.48,-169.18686 L36.96,-168.23903 L37.44,-167.62474 L37.92,-167.344 L38.4,-167.39677 L38.88,-167.78311 L39.36,-168.50298 L39.84,-168.3575 L40.32,-168.54556 L40.8,-169.06717 L41.28,-168.78302 L41.76,-168.83243 L42.24,-169.21536 L42.72,-169.15457 L43.2,-169.4273 L43.68,-169.4216 L44.16,-169.74944 L44.64,-169.1597 L45.12,-168.90349 L45.6,-168.98082 L46.08,-169.3917 L46.56,-169.01787 L47.04,-168.97757 L47.52,-169.27083 L48,-169.407 L48.48,-169.83739 L48.96,-168.8256 L49.44,-168.14735 L49.92,-167.80264 L50.4,-167.79147 L50.88,-168.11385 L51.36,-168.76974 L51.84,-168.46933 L52.32,-168.50246 L52.8,-168.86913 L53.28,-169.30725 L53.76,-168.96146 L54.24,-168.9492 L54.72,-169.2705 L55.2,-169.323 L55.68,-169.70905 L56.16,-168.99712 L56.64,-168.61871 L57.12,-168.57385 L57.6,-168.86253 L58.08,-169.48477 L58.56,-168.43929 L59.04,-167.72736 L59.52,-167.34895 L60,-167.3041 L60.48,-167.59279 L60.96,-168.21503 L61.44,-168.7368 L61.92,-168.88159 L62.4,-169.35992 L62.88,-168.82501 L63.36,-168.62364 L63.84,-168.75581 L64.32,-169.22151 L64.8,-168.90442 L65.28,-168.92088 L65.76,-169.27087 L66.24,-169.23676 L66.72,-169.53616 L67.2,-169.30891 L67.68,-169.4152 L68.16,-169.85503 L68.64,-168.79202 L69.12,-168.06256 L69.6,-167.66664 L70.08,-167.60425 L70.56,-167.87541 L71.04,-168.4801 L71.52,-168.7099 L72,-169.27322 L72.48,-168.59604 L72.96,-168.25238 L73.44,-168.24226 L73.92,-168.56569 L74.4,-169.22264 L74.88,-168.33032 L75.36,-167.77155 L75.84,-167.54631 L76.32,-167.6546 L76.8,-168.09647 L77.28,-168.87186 L77.76,-168.08028 L78.24,-167.62225 L78.72,-167.49776 L79.2,-167.7068 L79.68,-168.24937 L80.16,-168.96542 L80.64,-168.23026 L81.12,-167.82861 L81.6,-167.76053 L82.08,-168.02597 L82.56,-168.62495 L83.04,-168.68356 L83.52,-169.07571 L84,-169.16884 L84.48,-169.5955 L84.96,-168.90936 L85.44,-168.55675 L85.92,-168.53769 L86.4,-168.85216 L86.88,-169.46895 L87.36,-168.41801 L87.84,-167.70064 L88.32,-167.3168 L88.8,-167.26651 L89.28,-167.54976 L89.76,-168.16655 L90.24,-168.76768 L90.72,-168.63428 L91.2,-168.83441 L91.68,-169.36807 L92.16,-168.65659 L92.64,-168.27864 L93.12,-168.23424 L93.6,-168.52338 L94.08,-169.14604 L94.56,-168.45616 L95.04,-168.09984 L95.52,-168.07704 L96,-168.38779 L96.48,-169.03207 L96.96,-168.42554 L97.44,-168.15256 L97.92,-168.2131 L98.4,-168.60721 L98.88,-169.30357 L99.36,-168.33224 L99.84,-167.69446 L100.32,-167.39021 L100.8,-167.41951 L101.28,-167.78235 L101.76,-168.47871 L102.24,-168.43527 L102.72,-168.72536 L103.2,-169.34898 L103.68,-168.39241 L104.16,-167.76936 L104.64,-167.47986 L105.12,-167.52388 L105.6,-167.90146 L106.08,-168.61256 L106.56,-168.35089 L107.04,-168.42274 L107.52,-168.82813 L108,-169.20338 L108.48,-169.18121 L108.96,-169.49257 L109.44,-169.28613 L109.92,-169.41324 L110.4,-169.86273 L110.88,-168.7607 L111.36,-167.99222 L111.84,-167.55728 L112.32,-167.45589 L112.8,-167.68803 L113.28,-168.25372 L113.76,-168.89485 L114.24,-168.4762 L114.72,-168.39108 L115.2,-168.6395 L115.68,-169.22148 L116.16,-168.55565 L116.64,-168.22336 L117.12,-168.22461 L117.6,-168.55939 L118.08,-169.22772 L118.56,-168.29471 L119.04,-167.69524 L119.52,-167.4293 L120,-167.4969 L120.48,-167.89806 L120.96,-168.63274 L121.44,-168.27411 L121.92,-168.24901 L122.4,-168.55746 L122.88,-169.19946 L123.36,-168.38219 L123.84,-167.89845 L124.32,-167.74826 L124.8,-167.93161 L125.28,-168.4485 L125.76,-168.98279 L126.24,-168.7703 L126.72,-168.89136 L127.2,-169.34598 L127.68,-168.90039 L128.16,-168.78835 L128.64,-169.00984 L129.12,-169.56488 L129.6,-168.53343 L130.08,-167.83554 L130.56,-167.47118 L131.04,-167.44035 L131.52,-167.74307 L132,-168.37933 L132.48,-168.64543 L132.96,-169.24507 L133.44,-168.49557 L133.92,-168.07964 L134.4,-167.99722 L134.88,-168.24835 L135.36,-168.83302 L135.84,-168.66406 L136.32,-168.82863 L136.8,-169.32675 L137.28,-168.77563 L137.76,-168.55806 L138.24,-168.67403 L138.72,-169.12355 L139.2,-168.98239 L139.68,-169.17477 L140.16,-169.70068 L140.64,-168.58005 L141.12,-167.79295 L141.6,-167.33939 L142.08,-167.21939 L142.56,-167.43292 L143.04,-167.98 L143.52,-168.86061 L144,-168.0735 L144.48,-167.61995 L144.96,-167.49994 L145.44,-167.71347 L145.92,-168.26054 L146.4,-168.94864 L146.88,-168.31915 L147.36,-168.02321 L147.84,-168.06082 L148.32,-168.43198 L148.8,-169.13667 L149.28,-168.21295 L149.76,-167.62277 L150.24,-167.36612 L150.72,-167.44302 L151.2,-167.85345 L151.68,-168.59743 L152.16,-168.25685 L152.64,-168.24982 L153.12,-168.57632 L153.6,-169.23636 L154.08,-168.31696 L154.56,-167.73108 L155.04,-167.47874 L155.52,-167.55997 L156,-167.9747 L156.48,-168.72299 L156.96,-168.20622 L157.44,-168.02298 L157.92,-168.17331 L158.4,-168.65717 L158.88,-169.01929 L159.36,-169.27586 L159.84,-169.5155 L160.32,-169.49443 L160.8,-169.8069 L161.28,-169.18855 L161.76,-168.90375 L162.24,-168.95248 L162.72,-169.33478 L163.2,-169.12071 L163.68,-169.2402 L164.16,-169.69322 L164.64,-168.80095 L165.12,-168.2422 L165.6,-168.01698 L166.08,-168.12532 L166.56,-168.56718 L167.04,-169.17223 L167.52,-168.50122 L168,-168.16376 L168.48,-168.15984 L168.96,-168.48946 L169.44,-169.1526 L169.92,-168.33275 L170.4,-167.84642 L170.88,-167.69363 L171.36,-167.87439 L171.84,-168.38869 L172.32,-169.0085 L172.8,-168.50606 L173.28,-168.33716 L173.76,-168.50179 L174.24,-168.99997 L174.72,-168.87347 L175.2,-169.08052 L175.68,-169.62111 L176.16,-168.55989 L176.64,-167.83221 L177.12,-167.43808 L177.6,-167.37747 L178.08,-167.6504 L178.56,-168.2569 L179.04,-168.77148 L179.52,-168.89284 L180,-169.34772 L180.48,-168.89903 L180.96,-168.78387 L181.44,-169.00227 L181.92,-169.5542 L182.4,-168.54596 L182.88,-167.87125 L183.36,-167.53006 L183.84,-167.52243 L184.32,-167.84833 L184.8,-168.50777 L185.28,-168.53734 L185.76,-168.90045 L186.24,-169.30852 L186.72,-169.05127 L187.2,-169.12755 L187.68,-169.53735 L188.16,-168.97734 L188.64,-168.75084 L189.12,-168.8579 L189.6,-169.2985 L190.08,-168.95668 L190.56,-168.94841 L191.04,-169.27368 L191.52,-169.31007 L192,-169.68001 L192.48,-169.0542 L192.96,-168.76192 L193.44,-168.80318 L193.92,-169.17798 L194.4,-169.1902 L194.88,-169.53596 L195.36,-169.16994 L195.84,-169.13745 L196.32,-169.43849 L196.8,-169.3333 L197.28,-169.56165 L197.76,-169.51447 L198.24,-169.80083 L198.72,-169.26866 L199.2,-169.07002 L199.68,-169.20494 L200.16,-169.6734 L200.64,-168.76062 L201.12,-168.18138 L201.6,-167.93568 L202.08,-168.02353 L202.56,-168.4449 L203.04,-169.19981 L203.52,-168.28703 L204,-167.7078 L204.48,-167.4621 L204.96,-167.54994 L205.44,-167.97131 L205.92,-168.72624 L206.4,-168.18535 L206.88,-167.97801 L207.36,-168.10422 L207.84,-168.56395 L208.32,-169.11958 L208.8,-168.6652 L209.28,-168.54437 L209.76,-168.75708 L210.24,-169.30334 L210.72,-168.63823 L211.2,-168.30666 L211.68,-168.30862 L212.16,-168.64412 L212.64,-169.31316 L213.12,-168.3145 L213.6,-167.64938 L214.08,-167.31781 L214.56,-167.31978 L215.04,-167.65527 L215.52,-168.32431 L216,-168.5636 L216.48,-169.13641 L216.96,-168.60864 L217.44,-168.41443 L217.92,-168.55374 L218.4,-169.02658 L218.88,-168.94147 L219.36,-169.1899 L219.84,-169.56573 L220.32,-169.07076 L220.8,-168.90932 L221.28,-169.08144 L221.76,-169.58708 L222.24,-168.67494 L222.72,-168.09633 L223.2,-167.85126 L223.68,-167.93974 L224.16,-168.36174 L224.64,-169.1173 L225.12,-168.20515 L225.6,-167.62654 L226.08,-167.38147 L226.56,-167.46994 L227.04,-167.89195 L227.52,-168.6475 L228,-168.20708 L228.48,-168.10019 L228.96,-168.32684 L229.44,-168.88702 L229.92,-168.72133 L230.4,-168.88916 L230.88,-169.39052 L231.36,-168.74673 L231.84,-168.43646 L232.32,-168.45975 L232.8,-168.81659 L233.28,-169.35254 L233.76,-168.6544 L234.24,-168.2898 L234.72,-168.25873 L235.2,-168.5612 L235.68,-169.19722 L236.16,-168.4008 L236.64,-167.93793 L237.12,-167.80858 L237.6,-168.01277 L238.08,-168.5505 L238.56,-168.88965 L239.04,-169.38368 L239.52,-168.77074 L240,-168.49133 L240.48,-168.54549 L240.96,-168.93317 L241.44,-169.22499 L241.92,-169.425 L242.4,-169.64044 L242.88,-169.52954 L243.36,-169.7522 L243.84,-169.4744 L244.32,-169.53014 L244.8,-169.9194 L245.28,-168.92433 L245.76,-168.2628 L246.24,-167.93483 L246.72,-167.94038 L247.2,-168.27948 L247.68,-168.95212 L248.16,-168.36446 L248.64,-168.11032 L249.12,-168.18973 L249.6,-168.60268 L250.08,-169.24834 L250.56,-168.35654 L251.04,-167.79828 L251.52,-167.57356 L252,-167.68237 L252.48,-168.12474 L252.96,-168.90063 L253.44,-168.07011 L253.92,-167.57314 L254.4,-167.4097 L254.88,-167.57982 L255.36,-168.08348 L255.84,-168.92067 L256.32,-168.09015 L256.8,-167.59319 L257.28,-167.42976 L257.76,-167.59987 L258.24,-168.10353 L258.72,-168.94072 L259.2,-168.11021 L259.68,-167.61324 L260.16,-167.44981 L260.64,-167.61993 L261.12,-168.12358 L261.6,-168.96078 L262.08,-168.13026 L262.56,-167.6333 L263.04,-167.46988 L263.52,-167.64 L264,-168.14366 L264.48,-168.98085 L264.96,-168.15033 L265.44,-167.65338 L265.92,-167.48996 L266.4,-167.66006 L266.88,-168.16373 L267.36,-169.00092 L267.84,-168.17043 L268.32,-167.67346 L268.8,-167.51004 L269.28,-167.68016 L269.76,-168.1838 L270.24,-169.02101 L270.72,-168.1905 L271.2,-167.69354 L271.68,-167.53012 L272.16,-167.70024 L272.64,-168.2039 L273.12,-169.04109 L273.6,-168.2106 L274.08,-167.71364 L274.56,-167.55022 L275.04,-167.72034 L275.52,-168.22398 L276,-169.06119 L276.48,-168.23068 L276.96,-167.73372 L277.44,-167.5703 L277.92,-167.74042 L278.4,-168.24408 L278.88,-169.08127 L279.36,-168.25078 L279.84,-167.75381 L280.32,-167.5904 L280.8,-167.76051 L281.28,-168.26416 L281.76,-169.07779 L282.24,-168.2237 L282.72,-167.70317 L283.2,-167.51617 L283.68,-167.66272 L284.16,-168.14279 L284.64,-168.95642 L285.12,-168.10234 L285.6,-167.58182 L286.08,-167.39482 L286.56,-167.54137 L287.04,-168.02145 L287.52,-168.83507 L288,-167.981 L288.48,-167.46046 L288.96,-167.27347 L289.44,-167.42001 L289.92,-167.9001 L290.4,-168.71371 L290.88,-168.01302 L291.36,-167.64586 L291.84,-167.61223 L292.32,-167.91214 L292.8,-168.54561 L293.28,-168.60393 L293.76,-168.99579 L294.24,-169.1937 L294.72,-169.71619 L295.2,-168.58566 L295.68,-167.78867 L296.16,-167.32523 L296.64,-167.19531 L297.12,-167.39894 L297.6,-167.93613 L298.08,-168.80684 L298.56,-168.00986 L299.04,-167.5464 L299.52,-167.41649 L300,-167.62012 L300.48,-168.1573 L300.96,-169.00928 L301.44,-168.19354 L301.92,-167.71135 L302.4,-167.5627 L302.88,-167.74759 L303.36,-168.266 L303.84,-169.03291 L304.32,-168.1321 L304.8,-167.56482 L305.28,-167.33109 L305.76,-167.43091 L306.24,-167.86427 L306.72,-168.63116 L307.2,-168.17798 L307.68,-168.05833 L308.16,-168.27222 L308.64,-168.81966 L309.12,-168.77983 L309.6,-169.07355 L310.08,-169.46478 L310.56,-169.05487 L311.04,-168.97852 L311.52,-169.2357 L312,-169.52574 L312.48,-169.34015 L312.96,-169.48813 L313.44,-169.77768 L313.92,-169.26607 L314.4,-169.08798 L314.88,-169.24344 L315.36,-169.73245 L315.84,-168.68127 L316.32,-167.96365 L316.8,-167.57956 L317.28,-167.529 L317.76,-167.812 L318.24,-168.42853 L318.72,-168.68987 L319.2,-169.28476 L319.68,-168.49792 L320.16,-168.04465 L320.64,-167.9249 L321.12,-168.1387 L321.6,-168.68604 L322.08,-168.82018 L322.56,-169.28787 L323.04,-168.87857 L323.52,-168.80281 L324,-169.06058 L324.48,-169.57646 L324.96,-168.64742 L325.44,-168.0519 L325.92,-167.78992 L326.4,-167.86148 L326.88,-168.26659 L327.36,-169.00522 L327.84,-168.1505 L328.32,-167.62932 L328.8,-167.44168 L329.28,-167.58759 L329.76,-168.06703 L330.24,-168.88002 L330.72,-168.0253 L331.2,-167.50412 L331.68,-167.3165 L332.16,-167.4624 L332.64,-167.94186 L333.12,-168.75485 L333.6,-168.0026 L334.08,-167.58388 L334.56,-167.49869 L335.04,-167.74706 L335.52,-168.32895 L336,-168.82362 L336.48,-168.93689 L336.96,-169.38368 L337.44,-168.91248 L337.92,-168.77481 L338.4,-168.97069 L338.88,-169.5001 L339.36,-168.62973 L339.84,-168.0929 L340.32,-167.8896 L340.8,-168.01985 L341.28,-168.48364 L341.76,-169.13155 L342.24,-168.38483 L342.72,-167.97166 L343.2,-167.89203 L343.68,-168.14592 L344.16,-168.73338 L344.64,-168.68562 L345.12,-168.9714 L345.6,-169.51923 L346.08,-168.56874 L346.56,-167.95183 L347.04,-167.66846 L347.52,-167.71861 L348,-168.10231 L348.48,-168.81955 L348.96,-168.27042 L349.44,-168.05482 L349.92,-168.17278 L350.4,-168.62425 L350.88,-169.12625 L351.36,-168.82414 L351.84,-168.85558 L352.32,-169.22055 L352.8,-169.20691 L353.28,-169.5268 L353.76,-169.2503 L354.24,-169.30736 L354.72,-169.69795 L355.2,-168.98683 L355.68,-168.60928 L356.16,-168.56526 L356.64,-168.85478 L357.12,-169.47784 L357.6,-168.4332 L358.08,-167.7221 L358.56,-167.34454 L359.04,-167.30052 L359.52,-167.59006 L360,-168.2131 L360.48,-168.7349 L360.96,-168.88219 L361.44,-169.363 L361.92,-168.81659 L362.4,-168.60371 L362.88,-168.72438 L363.36,-169.17859 L363.84,-168.95181 L364.32,-169.05858 L364.8,-169.49887 L365.28,-168.89746 L365.76,-168.62958 L366.24,-168.69524 L366.72,-169.09444 L367.2,-169.14207 L367.68,-169.52324 L368.16,-169.0675 L368.64,-168.94531 L369.12,-169.15666 L369.6,-169.68697 L370.08,-168.57098 L370.56,-167.78854 L371.04,-167.33963 L371.52,-167.22426 L372,-167.44243 L372.48,-167.99414 L372.96,-168.8794 L373.44,-168.09695 L373.92,-167.64804 L374.4,-167.53267 L374.88,-167.75084 L375.36,-168.30255 L375.84,-168.9221 L376.32,-168.53276 L376.8,-168.47696 L377.28,-168.75468 L377.76,-169.36598 L378.24,-168.42436 L378.72,-167.81628 L379.2,-167.54173 L379.68,-167.60074 L380.16,-167.99327 L380.64,-168.71935 L381.12,-168.27397 L381.6,-168.16214 L382.08,-168.38385 L382.56,-168.93909 L383.04,-168.72055 L383.52,-168.83554 L384,-169.28407 L384.48,-168.93716 L384.96,-168.92378 L385.44,-169.24394 L385.92,-169.33434 L386.4,-169.75826 L386.88,-168.86876 L387.36,-168.3128 L387.84,-168.09038 L388.32,-168.2015 L388.8,-168.64618 L389.28,-169.14014 L389.76,-168.84407 L390.24,-168.88153 L390.72,-169.25253 L391.2,-169.17921 L391.68,-169.43942 L392.16,-169.45555 L392.64,-169.80522 L393.12,-169.07745 L393.6,-168.68321 L394.08,-168.62251 L394.56,-168.89536 L395.04,-169.50172 L395.52,-168.44041 L396,-167.71263 L396.48,-167.31839 L396.96,-167.25769 L397.44,-167.53053 L397.92,-168.13692 L398.4,-168.80779 L398.88,-168.41302 L399.36,-168.3518 L399.84,-168.62415 L400.32,-169.23003 L400.8,-168.48138 L401.28,-168.06627 L401.76,-167.98471 L402.24,-168.23668 L402.72,-168.82222 L403.2,-168.66478 L403.68,-168.84088 L404.16,-169.35051 L404.64,-168.73393 L405.12,-168.4509 L405.6,-168.5014 L406.08,-168.88544 L406.56,-169.25023 L407.04,-169.19856 L407.52,-169.48045 L408,-169.3782 L408.48,-169.6095 L408.96,-169.49132 L409.44,-169.70668 L409.92,-169.50992 L410.4,-169.64668 L410.88,-169.7637 L411.36,-169.78784 L411.84,-170.05923 L412.32,-169.23604 L412.8,-168.74638 L413.28,-168.59027 L413.76,-168.7677 L414.24,-169.27867 L414.72,-168.75151 L415.2,-168.55789 L415.68,-168.6978 L416.16,-169.17125 L416.64,-168.89627 L417.12,-168.95483 L417.6,-169.34692 L418.08,-169.08762 L418.56,-169.16183 L419.04,-169.5696 L419.52,-168.97383 L420,-168.71161 L420.48,-168.78293 L420.96,-169.18779 L421.44,-169.09708 L421.92,-169.3399 L422.4,-169.53755 L422.88,-169.6138 L423.36,-169.95514 L423.84,-169.05743 L424.32,-168.49329 L424.8,-168.26265 L425.28,-168.36559 L425.76,-168.80206 L426.24,-169.11798 L426.72,-169.38483 L427.2,-169.45197 L427.68,-169.85265 L428.16,-168.91019 L428.64,-168.30125 L429.12,-168.02588 L429.6,-168.08403 L430.08,-168.47572 L430.56,-169.20096 L431.04,-168.25848 L431.52,-167.64957 L432,-167.37418 L432.48,-167.43234 L432.96,-167.82404 L433.44,-168.54926 L433.92,-168.32751 L434.4,-168.43933 L434.88,-168.88466 L435.36,-169.06659 L435.84,-169.58205 L436.32,-168.64702 L436.8,-168.04553 L437.28,-167.77759 L437.76,-167.84319 L438.24,-168.24232 L438.72,-168.975 L439.2,-168.17746 L439.68,-167.71346 L440.16,-167.583 L440.64,-167.78607 L441.12,-168.3227 L441.6,-168.96133 L442.08,-168.46368 L442.56,-168.29959 L443.04,-168.46902 L443.52,-168.972 L444,-168.8675 L444.48,-169.09653 L444.96,-169.65196 L445.44,-168.53969 L445.92,-167.76096 L446.4,-167.31577 L446.88,-167.20413 L447.36,-167.42603 L447.84,-167.98146 L448.32,-168.87045 L448.8,-168.0917 L449.28,-167.64651 L449.76,-167.53488 L450.24,-167.75677 L450.72,-168.31223 L451.2,-168.90802 L451.68,-168.60814 L452.16,-168.6418 L452.64,-169.009 L453.12,-169.2637 L453.6,-169.5248 L454.08,-169.42726 L454.56,-169.66327 L455.04,-169.46098 L455.52,-169.59224 L456,-169.79655 L456.48,-169.51608 L456.96,-169.56917 L457.44,-169.9558 L457.92,-168.9214 L458.4,-168.22055 L458.88,-167.85324 L459.36,-167.81947 L459.84,-168.11925 L460.32,-168.75255 L460.8,-168.5423 L461.28,-168.6656 L461.76,-169.12244 L462.24,-168.96077 L462.72,-169.13263 L463.2,-169.63805 L463.68,-168.66037 L464.16,-168.01622 L464.64,-167.70563 L465.12,-167.72858 L465.6,-168.08505 L466.08,-168.77507 L466.56,-168.36543 L467.04,-168.28932 L467.52,-168.54677 L468,-169.13774 L468.48,-168.55376 L468.96,-168.3033 L469.44,-168.38638 L469.92,-168.80302 L470.4,-169.1772 L470.88,-169.1923 L471.36,-169.54095 L471.84,-169.15979 L472.32,-169.11215 L472.8,-169.39807 L473.28,-169.39088 L473.76,-169.71724 L474.24,-169.17377 L474.72,-168.96384 L475.2,-169.08743 L475.68,-169.54457 L476.16,-168.83319 L476.64,-168.45534 L477.12,-168.41103 L477.6,-168.70026 L478.08,-169.32303 L478.56,-168.40279 L479.04,-167.81607 L479.52,-167.56291" fill="none" stroke="#DD3355" stroke-linejoin="round" stroke-width="2"/>
</g>
</g>
<g>
<g>
<line stroke="black" stroke-width="1" x1="0" x2="0" y1="0" y2="10"/>
<line stroke="black" stroke-width="1" x1="96" x2="96" y1="0" y2="10"/>
<line stroke="black" stroke-width="1" x1="192" x2="192" y1="0" y2="10"/>
<line stroke="black" stroke-width="1" x1="288" x2="288" y1="0" y2="10"/>
<line stroke="black" stroke-width="1" x1="384" x2="384" y1="0" y2="10"/>
<line stroke="black" stroke-width="1" x1="480" x2="480" y1="0" y2="10"/>
</g>
<line stroke="black" stroke-width="1" x1="0" x2="480" y1="0" y2="0"/>
<g>
<text font-size="12" text-anchor="middle" x="0" y="20">
0
</text>
<text font-size="12" text-anchor="middle" x="96" y="20">
200
</text>
<text font-size="12" text-anchor="middle" x="192" y="20">
400
</text>
<text font-size="12" text-anchor="middle" x="288" y="20">
600
</text>
<text font-size="12" text-anchor="middle" x="384" y="20">
800
</text>
<text font-size="12" text-anchor="middle" x="480" y="20">
1000
</text>
</g>
<text font-size="12" text-anchor="middle" x="240" y="30">
Iteration
</text>
</g>
<g>
<g>
<line stroke="black" stroke-width="1" x1="0" x2="-10" y1="-0" y2="-0"/>
<line stroke="black" stroke-width="1" x1="0" x2="-10" y1="-68" y2="-68"/>
<line stroke="black" stroke-width="1" x1="0" x2="-10" y1="-136" y2="-136"/>
<line stroke="black" stroke-width="1" x1="0" x2="-10" y1="-204" y2="-204"/>
<line stroke="black" stroke-width="1" x1="0" x2="-10" y1="-272" y2="-272"/>
<line stroke="black" stroke-width="1" x1="0" x2="-10" y1="-340" y2="-340"/>
</g>
<line stroke="black" stroke-width="1" x1="0" x2="0" y1="0" y2="-340"/>
<g>
<text dominant-baseline="middle" font-size="12" text-anchor="end" x="-15" y="-0">
0
</text>
<text dominant-baseline="middle" font-size="12" text-anchor="end" x="-15" y="-68">
4
</text>
<text dominant-baseline="middle" font-size="12" text-anchor="end" x="-15" y="-136">
8
</text>
<text dominant-baseline="middle" font-size="12" text-anchor="end" x="-15" y="-204">
12
</text>
<text dominant-baseline="middle" font-size="12" text-anchor="end" x="-15" y="-272">
16
</text>
<text dominant-baseline="middle" font-size="12" text-anchor="end" x="-15" y="-340">
20
</text>
</g>
<text font-size="12" text-anchor="middle" transform="rotate(-90 -24 -170)" x="-24" y="-182">
Altitude Z
</text>
</g>
</g>
</svg>