<svg viewBox="0 0 600 400" xmlns="http://www.w3.org/2000/svg">
<g transform="translate(72, 364)">
<g>
<g>
<circle cx="180" cy="-170" fill="#000000" r="3"/>
</g>
</g>
<g>
<g>
<path d="M0,-0 L0,-0 L0.00006419944,-0.8421878 L0.0009964594,-3.3520725 L0.0049236463,-7.5296516 L0.015207524,-13.374927 L0.03629521,-20.887894 L0.07357351,-30.068558 L0.13322829,-40.916916 L0.22210939,-53.432976 L0.34760255,-67.61676 L0.5175077,-82.99492 L0.7399254,-97.987854 L1.0231515,-111.50204 L1.3755801,-123.53741 L1.8056126,-134.09396 L2.3215787,-143.17169 L2.9316626,-150.77063 L3.6438422,-156.89072 L4.4658275,-161.53198 L5.4049635,-164.69443 L6.467515,-166.37805 L7.6573696,-166.93442 L8.975436,-167.41434 L10.419846,-167.81538 L11.986249,-168.16325 L13.6680765,-168.45206 L15.456817,-168.70451 L17.342283,-168.91216 L19.3129,-169.09569 L21.355894,-169.2447 L23.457556,-169.37846 L25.60345,-169.48509 L27.778656,-169.58278 L29.967918,-169.65875 L32.155796,-169.73044 L34.326897,-169.7843 L36.466015,-169.83717 L38.558212,-169.875 L40.588913,-169.9143 L42.544106,-169.94057 L44.4103,-169.96996 L46.17475,-169.98788 L47.825375,-170.01028 L49.350872,-170.02214 L50.74071,-170.03941 L51.985256,-170.04689 L53.07567,-170.06046 L54.003925,-170.06477 L54.762783,-170.07567 L55.346085,-170.0777 L55.748344,-170.08665 L55.96643,-170.087 L56.00061,-170.09462 L55.854355,-170.09381 L55.533974,-170.1003 L55.04825,-170.09859 L54.40827,-170.10446 L53.626915,-170.10213 L52.71865,-170.1075 L51.69931,-170.10469 L50.58569,-170.10966 L49.395355,-170.10652 L48.146454,-170.11124 L46.857277,-170.10785 L45.546356,-170.11237 L44.232113,-170.10884 L42.93268,-170.11322 L41.665787,-170.10953 L40.448666,-170.11385 L39.297882,-170.11003 L38.229256,-170.11429 L37.257797,-170.1104 L36.397614,-170.1146 L35.66188,-170.11066 L35.062805,-170.11482 L34.6116,-170.11082 L34.318462,-170.11508 L34.19258,-170.11102 L34.242157,-170.11516 L34.474403,-170.1111 L34.89556,-170.11525 L35.51094,-170.11115 L36.324966,-170.11528 L37.34099,-170.11118 L38.5599,-170.11534 L39.97927,-170.11119 L41.59347,-170.11537 L43.39413,-170.11131 L45.370434,-170.11546 L47.509445,-170.11128 L49.79646,-170.11545 L52.21525,-170.11125 L54.748466,-170.11545 L57.377884,-170.11125 L60.084564,-170.11545 L62.849224,-170.11125 L65.65236,-170.11545 L68.47449,-170.1112 L71.29637,-170.11548 L74.09914,-170.11122 L76.86441,-170.11543 L79.57442,-170.11124 L82.21222,-170.1155 L84.76165,-170.11122 L87.207466,-170.1155 L89.5354,-170.11118 L91.732216,-170.11546 L93.78569,-170.11115 L95.6847,-170.11546 L97.4191,-170.11115 L98.979965,-170.11548 L100.35927,-170.11115 L101.550064,-170.11552 L102.54636,-170.11122 L103.343094,-170.11557 L103.93627,-170.11119 L104.32257,-170.1155 L104.49977,-170.11101 L104.46768,-170.11513 L104.22966,-170.11107 L103.79205,-170.11542 L103.16402,-170.111 L102.35713,-170.11534 L101.385056,-170.11092 L100.26308,-170.11536 L99.00799,-170.11096 L97.63777,-170.11543 L96.171135,-170.11104 L94.627495,-170.11552 L93.02655,-170.1111 L91.38821,-170.11552 L89.73223,-170.11107 L88.07815,-170.11552 L86.4451,-170.11102 L84.85166,-170.11551 L83.31572,-170.11102 L81.854385,-170.11552 L80.48392,-170.11102 L79.21955,-170.11557 L78.07564,-170.11104 L77.06542,-170.1156 L76.20107,-170.1111 L75.49369,-170.11563 L74.95329,-170.11108 L74.588806,-170.11565 L74.40814,-170.11105 L74.41813,-170.11563 L74.624664,-170.11104 L75.03258,-170.11563 L75.64586,-170.11118 L76.46749,-170.11575 L77.49817,-170.11113 L78.73516,-170.11575 L80.172585,-170.11111 L81.80176,-170.11574 L83.61153,-170.11105 L85.588554,-170.1157 L87.71782,-170.11104 L89.98273,-170.1157 L92.36558,-170.11095 L94.84773,-170.11563 L97.40993,-170.11095 L100.0325,-170.11565 L102.69557,-170.11095 L105.37933,-170.11566 L108.06434,-170.11095 L110.731316,-170.11569 L113.36163,-170.11096 L115.93721,-170.11568 L118.44093,-170.11093 L120.85643,-170.11568 L123.168045,-170.11095 L125.361694,-170.11572 L127.423805,-170.11095 L129.34198,-170.1157 L131.10497,-170.11092 L132.70262,-170.11569 L134.12578,-170.11092 L135.36641,-170.11577 L136.41743,-170.11095 L137.27293,-170.11577 L137.92786,-170.11093 L138.37807,-170.11577 L138.62033,-170.11092 L138.65233,-170.11577 L138.47403,-170.1109 L138.08871,-170.11577 L137.50285,-170.11092 L136.72559,-170.1158 L135.76854,-170.11095 L134.64539,-170.11584 L133.37154,-170.1109 L131.96382,-170.11581 L130.4402,-170.11087 L128.81963,-170.11581 L127.121414,-170.11087 L125.36542,-170.1159 L123.57152,-170.11093 L121.759705,-170.11589 L119.949356,-170.11092 L118.15976,-170.11589 L116.40946,-170.11086 L114.71647,-170.11589 L113.09798,-170.11086 L111.57019,-170.11589 L110.14859,-170.11084 L108.8473,-170.11589 L107.6797,-170.11081 L106.658005,-170.11588 L105.79333,-170.11076 L105.09572,-170.11581 L104.57419,-170.11075 L104.23659,-170.11584 L104.0898,-170.11073 L104.13963,-170.11586 L104.39105,-170.11075 L104.848,-170.11588 L105.51352,-170.11073 L106.38823,-170.11589 L107.46947,-170.11073 L108.7513,-170.11588 L110.22505,-170.11072 L111.87956,-170.11592 L113.70151,-170.11073 L115.6758,-170.11594 L117.78592,-170.11078 L120.014206,-170.11601 L122.34184,-170.1108 L124.74963,-170.11606 L127.21794,-170.11087 L129.72685,-170.11624 L132.25664,-170.11137 L134.7877,-170.11624 L137.30078,-170.11084 L139.77728,-170.11604 L142.19922,-170.11072 L144.54926,-170.11598 L146.8111,-170.11063 L148.96924,-170.11594 L151.00928,-170.1106 L152.91779,-170.11592 L154.68242,-170.11058 L156.29185,-170.11592 L157.73592,-170.11058 L159.00551,-170.11595 L160.09254,-170.11058 L160.99005,-170.11598 L161.69196,-170.1106 L162.19324,-170.116 L162.4898,-170.11058 L162.5784,-170.11603 L162.45668,-170.11061 L162.12463,-170.11603 L161.58557,-170.11058 L160.84593,-170.11598 L159.91486,-170.11052 L158.80397,-170.116 L157.52696,-170.11053 L156.09918,-170.11603 L154.5376,-170.1105 L152.86018,-170.11603 L151.08559,-170.11053 L149.23341,-170.11606 L147.3234,-170.11053 L145.37546,-170.11606 L143.40945,-170.1104 L141.44498,-170.11597 L139.50125,-170.11043 L137.59685,-170.11601 L135.74976,-170.11047 L133.97711,-170.11609 L132.29518,-170.11047 L130.7193,-170.1161 L129.26384,-170.11043 L127.942085,-170.11606 L126.76622,-170.1104 L125.74736,-170.11606 L124.8956,-170.11041 L124.21985,-170.11609 L123.72807,-170.11041 L123.42712,-170.1161 L123.322784,-170.11043 L123.42,-170.11613 L123.72281,-170.11043 L124.234116,-170.11615 L124.954666,-170.11043 L125.881714,-170.11618 L127.00935,-170.11044 L128.32898,-170.11621 L129.8293,-170.11043 L131.4971,-170.11621 L133.31729,-170.11041 L135.27332,-170.11621 L137.34734,-170.11041 L139.52084,-170.11623 L141.77452,-170.1104 L144.08873,-170.11623 L146.44353,-170.11044 L148.81918,-170.11629 L151.19603,-170.11043 L153.55504,-170.11627 L155.87744,-170.11038 L158.14517,-170.11627 L160.34111,-170.1104 L162.44884,-170.1163 L164.45287,-170.1104 L166.33882,-170.11636 L168.09323,-170.11041 L169.70375,-170.11636 L171.15909,-170.1104 L172.44904,-170.11633 L173.56451,-170.11035 L174.49744,-170.11633 L175.24084,-170.11029 L175.7887,-170.1163 L176.1359,-170.11029 L176.27841,-170.11632 L176.21288,-170.11029 L175.9371,-170.11633 L175.45099,-170.1103 L174.75784,-170.11641 L173.86409,-170.11034 L172.7789,-170.11644 L171.51392,-170.11038 L170.08282,-170.11647 L168.50099,-170.1103 L166.78525,-170.11632 L164.95361,-170.11066 L163.02495,-170.11684 L161.01868,-170.11067 L158.95454,-170.1168 L156.8525,-170.11058 L154.73233,-170.11673 L152.61375,-170.11047 L150.51595,-170.11664 L148.45746,-170.11038 L146.45628,-170.11655 L144.52953,-170.11028 L142.69354,-170.1165 L140.9635,-170.11024 L139.35399,-170.1165 L137.87811,-170.11024 L136.5481,-170.11653 L135.37515,-170.11023 L134.3693,-170.11653 L133.53949,-170.11021 L132.89362,-170.11653 L132.43855,-170.11021 L132.18015,-170.11655 L132.1233,-170.11017 L132.27199,-170.11652 L132.62927,-170.11015 L133.19601,-170.11653 L133.97005,-170.11014 L134.94589,-170.11656 L136.11526,-170.11015 L137.46725,-170.11656 L138.98897,-170.11014 L140.66551,-170.11653 L142.48055,-170.11005 L144.4165,-170.1165 L146.45473,-170.11005 L148.57611,-170.11655 L150.76094,-170.11006 L152.98944,-170.11658 L155.24179,-170.11005 L157.4983,-170.11658 L159.73978,-170.11003 L161.94739,-170.11662 L164.10304,-170.11009 L166.18939,-170.1167 L168.18991,-170.11008 L170.08891,-170.11667 L171.87196,-170.11005 L173.52542,-170.11668 L175.03671,-170.11003 L176.39444,-170.11667 L177.58829,-170.11002 L178.60887,-170.1167 L179.44801,-170.11002 L180.09859,-170.11671 L180.55435,-170.11 L180.81018,-170.1167 L180.86182,-170.10994 L180.70601,-170.11668 L180.3418,-170.10995 L179.77168,-170.11671 L179.00134,-170.10995 L178.03925,-170.11673 L176.8964,-170.10994 L175.58598,-170.11673 L174.12283,-170.10992 L172.5235,-170.11674 L170.8054,-170.10994 L168.98734,-170.11679 L167.08835,-170.10991 L165.12807,-170.11678 L163.12634,-170.10988 L161.10281,-170.1167 L159.07713,-170.10982 L157.06847,-170.11674 L155.09543,-170.10986 L153.17606,-170.11679 L151.32759,-170.10986 L149.56647,-170.1168 L147.90807,-170.10982 L146.36702,-170.11679 L144.95667,-170.10982 L143.68947,-170.11693 L142.57669,-170.11044 L141.6286,-170.11736 L140.8544,-170.1103 L140.26215,-170.11731 L139.85893,-170.1102 L139.6508,-170.11719 L139.64287,-170.11005 L139.83928,-170.1171 L140.24324,-170.10999 L140.85559,-170.11708 L141.67381,-170.10994 L142.69214,-170.11707 L143.90198,-170.10991 L145.29236,-170.11696 L146.85011,-170.10979 L148.5603,-170.11696 L150.40646,-170.10976 L152.37079,-170.11696 L154.43497,-170.10973 L156.57965,-170.11691 L158.78531,-170.10968 L161.03204,-170.11694 L163.30011,-170.1097 L165.5701,-170.11699 L167.82265,-170.10971 L170.03925,-170.117 L172.2018,-170.1097 L174.29314,-170.11702 L176.29684,-170.10968 L178.19742,-170.117 L179.98056,-170.10965 L181.63272,-170.117 L183.14153,-170.10963 L184.49567,-170.117 L185.68486,-170.10962 L186.7001,-170.11703 L187.53323,-170.10963 L188.17725,-170.11707 L188.626,-170.10965 L188.87448,-170.11713 L188.91855,-170.10966 L188.75504,-170.11719 L188.38306,-170.10966 L187.80522,-170.11717 L187.02724,-170.10962 L186.05772,-170.11717 L184.90765,-170.10956 L183.59023,-170.11713 L182.12042,-170.10954 L180.51468,-170.11713 L178.79077,-170.10951 L176.96709,-170.11714 L175.0629,-170.10951 L173.09789,-170.11714 L171.0918,-170.10947 L169.06439,-170.11713 L167.03528,-170.10947 L165.0235,-170.11716 L163.04782,-170.10945 L161.12617,-170.11722 L159.27583,-170.10948 L157.51315,-170.1172 L155.85356,-170.10944 L154.31158,-170.11719 L152.90063,-170.1094 L151.6331,-170.11722 L150.5203,-170.10944 L149.57237,-170.11723 L148.79851,-170.1094 L148.2068,-170.11726 L147.80423,-170.10945 L147.59695,-170.1173 L147.58995,-170.10936 L147.78745,-170.11665 L148.19252,-170.10875 L148.80605,-170.11674 L149.62549,-170.10895 L150.64505,-170.11697 L151.8562,-170.10905 L153.24788,-170.11708 L154.80692,-170.10915 L156.51831,-170.11717 L158.36565,-170.11006 L160.33112,-170.11795 L162.39638,-170.11124 L164.54211,-170.11896 L166.74866,-170.1115 L168.99637,-170.11917 L171.26535,-170.11238 L173.53601,-170.11993 L175.78932,-170.11223 L178.00656,-170.11978 L180.16971,-170.11305 L182.26157,-170.12047 L184.26575,-170.11252 L186.16685,-170.12004 L187.95032,-170.11345 L189.60274,-170.12085 L191.11172,-170.1126 L192.466,-170.12012 L193.65541,-170.11382 L194.67072,-170.12111 L195.50388,-170.11255 L196.1478,-170.12007 L196.59654,-170.11403 L196.84497,-170.12129 L196.88889,-170.1127 L196.7251,-170.12024 L196.35123,-170.11386 L195.76718,-170.12115 L194.97629,-170.11258 L193.98495,-170.12012 L192.8023,-170.11412 L191.4399,-170.12138 L189.91139,-170.1128 L188.23222,-170.1203 L186.41917,-170.11385 L184.49026,-170.12114 L182.4643,-170.11264 L180.36069,-170.12016 L178.19914,-170.11409 L175.99971,-170.12137 L173.78209,-170.11276 L171.56598,-170.12029 L169.37054,-170.11394 L167.21436,-170.12123 L165.11542,-170.11264 L163.09082,-170.12016 L161.15686,-170.11412 L159.32898,-170.12138 L157.62129,-170.11281 L156.04718,-170.1203 L154.61894,-170.11389 L153.3476,-170.12119 L152.24326,-170.11263 L151.31488,-170.12015 L150.57034,-170.11414 L150.01659,-170.1214 L149.65945,-170.11281 L149.5038,-170.1203 L149.55365,-170.11388 L149.81204,-170.12117 L150.28055,-170.11264 L150.95802,-170.12016 L151.84,-170.1141 L152.91904,-170.12137 L154.18509,-170.1128 L155.62582,-170.1203 L157.22693,-170.11392 L158.97244,-170.12122 L160.84521,-170.11264 L162.82681,-170.12015 L164.89825,-170.11414 L167.04001,-170.1214 L169.2322,-170.11281 L171.45497,-170.1203 L173.68842,-170.11386 L175.9134,-170.12115 L178.11081,-170.11264 L180.2622,-170.12016 L182.35004,-170.1141 L184.35748,-170.12137 L186.26857,-170.11278 L188.0683,-170.1203 L189.7428,-170.11394 L191.27914,-170.12123 L192.66556,-170.11266 L193.89127,-170.12016 L194.94667,-170.11414 L195.82309,-170.1214 L196.51312,-170.11282 L197.01025,-170.12032 L197.30896,-170.1139 L197.4046,-170.1212 L197.29361,-170.11266 L196.97328,-170.12016 L196.44324,-170.11412 L195.70642,-170.12138 L194.76892,-170.11281 L193.63965,-170.1203 L192.33,-170.11389 L190.8534,-170.12119 L189.22508,-170.11264 L187.46179,-170.12016 L185.5814,-170.11414 L183.60252,-170.1214 L181.54456,-170.11282 L179.42728,-170.12032 L177.27043,-170.11389 L175.09392,-170.1212 L172.91733,-170.11267 L170.75993,-170.12018 L168.64032,-170.11412 L166.57643,-170.12138 L164.58554,-170.11281 L162.68394,-170.12032 L160.88713,-170.11392 L159.20937,-170.12122 L157.66406,-170.11264 L156.26352,-170.12015 L155.01895,-170.11414 L153.94055,-170.1214 L153.03726,-170.11281 L152.31714,-170.1203 L151.78708,-170.11386 L151.4531,-170.12115 L151.32016,-170.11264 L151.39232,-170.12016 L151.67262,-170.1141 L152.16187,-170.12137 L152.85739,-170.11278 L153.75334,-170.1203 L154.8411,-170.11394 L156.10953,-170.12123 L157.54546,-170.11266 L159.13379,-170.12016 L160.85802,-170.11414 L162.70056,-170.1214 L164.64261,-170.11282 L166.66496,-170.12032 L168.74803,-170.1139 L170.872,-170.1212 L173.01703,-170.11266 L175.1636,-170.12016 L177.29243,-170.11412 L179.38492,-170.12138 L181.4231,-170.11281 L183.38968,-170.1203 L185.26831,-170.11389 L187.04355,-170.12119 L188.70091,-170.11264 L190.22694,-170.12016 L191.60931,-170.11414 L192.8367,-170.1214 L193.89893,-170.11282 L194.78683,-170.12032 L195.49237,-170.11389 L196.00851,-170.1212 L196.32928,-170.11267 L196.44955,-170.12018 L196.3652,-170.11412 L196.07314,-170.12138 L195.57245,-170.11281 L194.86575,-170.12032 L193.95883,-170.11392 L192.86028,-170.12122 L191.58113,-170.11264 L190.13455,-170.12015 L188.53555,-170.11414 L186.80058,-170.1214 L184.94739,-170.11281 L182.99448,-170.1203 L180.96109,-170.11386 L178.86682,-170.12115 L176.73154,-170.11264 L174.57494,-170.12016 L172.41664,-170.1141 L170.27577,-170.12137 L168.17104,-170.11278 L166.12039,-170.1203 L164.14111,-170.11394 L162.24954,-170.12123 L160.46117,-170.11266 L158.7904,-170.12016 L157.25072,-170.11414 L155.85452,-170.1214 L154.61307,-170.11282 L153.53662,-170.12032 L152.63423,-170.1139 L151.9141,-170.1212 L151.38315,-170.11266 L151.04749,-170.12016 L150.91219,-170.11412 L150.98135,-170.12138 L151.25818,-170.11281 L151.74352,-170.1203 L152.43478,-170.11389 L153.32619,-170.12119 L154.40921,-170.11264 L155.6728,-170.12016 L157.10373,-170.11414 L158.68709,-170.1214 L160.40636,-170.11282 L162.24373,-170.12032 L164.18094,-170.11389 L166.19864,-170.1212 L168.27725,-170.11267 L170.39685,-170.12018 L172.53777,-170.11412 L174.68036,-170.12138 L176.8056,-170.11281 L178.8948,-170.12032 L180.92986,-170.11392 L182.89365,-170.12122 L184.76979,-170.11264 L186.54286,-170.12015 L188.19821,-170.11414 L189.72255,-170.1214 L191.1034,-170.11281 L192.32962,-170.1203 L193.3909,-170.11386 L194.27806,-170.12115 L194.9831,-170.11264 L195.49884,-170.12016 L195.81944,-170.1141 L195.9397,-170.12137 L195.85547,-170.11278 L195.56363,-170.1203 L195.0633,-170.11394 L194.35707,-170.12123 L193.45071,-170.11266 L192.35275,-170.12016 L191.07422,-170.11414 L189.62836,-170.1214 L188.03012,-170.11282 L186.29596,-170.12032 L184.44365,-170.1139 L182.49156,-170.1212 L180.45898,-170.11266 L178.3655,-170.12016 L176.23102,-170.11412 L174.07523,-170.12138 L171.91777,-170.11281 L169.77765,-170.1203 L167.67355,-170.11389 L165.62363,-170.12119 L163.64493,-170.11264 L161.7539,-170.12016 L159.96593,-170.11414 L158.29565,-170.1214 L156.75644,-170.11282 L155.36061,-170.12032 L154.11948,-170.11389 L153.04327,-170.1212 L152.14116,-170.11267 L151.4212,-170.12018 L150.89044,-170.11412 L150.55493,-170.12138 L150.41974,-170.11281 L150.48901,-170.12032 L150.76587,-170.11392 L151.25122,-170.12122 L151.94247,-170.11264 L152.83385,-170.12015 L153.91684,-170.11414 L155.18031,-170.1214 L156.61116,-170.11281 L158.19438,-170.1203 L159.91354,-170.11386 L161.75084,-170.12115 L163.68793,-170.11264 L165.70547,-170.12016 L167.78384,-170.1141 L169.90338,-170.12137 L172.04419,-170.11278 L174.18668,-170.1203 L176.31181,-170.11394 L178.40086,-170.12123 L180.43585,-170.11266 L182.39954,-170.12016 L184.27554,-170.11414 L186.04846,-170.1214 L187.70374,-170.11282 L189.228,-170.12032 L190.6088,-170.1139 L191.8349,-170.1212 L192.89609,-170.11266 L193.78322,-170.12016 L194.48819,-170.11412 L195.00394,-170.12138 L195.32451,-170.11281 L195.44472,-170.1203 L195.36044,-170.11389 L195.06857,-170.12119 L194.56824,-170.11264 L193.86203,-170.12016 L192.95567,-170.11414 L191.85771,-170.1214 L190.57921,-170.11282 L189.13335,-170.12032 L187.5351,-170.11389 L185.80095,-170.1212 L183.94873,-170.11267 L181.99666,-170.12018 L179.96411,-170.11412 L177.87065,-170.12138 L175.73619,-170.11281 L173.58041,-170.12032 L171.42296,-170.11392 L169.28287,-170.12122 L167.1788,-170.11264 L165.12888,-170.12015 L163.15024,-170.11414 L161.25922,-170.1214 L159.47127,-170.11281 L157.80104,-170.1203 L156.26183,-170.11386 L154.86606,-170.12115 L153.62497,-170.11264 L152.54877,-170.12016 L151.64665,-170.1141 L150.92671,-170.12137 L150.39595,-170.11278 L150.06049,-170.1203 L149.92531,-170.11394 L149.99461,-170.12123 L150.2715,-170.11266 L150.75685,-170.12016 L151.44812,-170.11414 L152.3395,-170.1214 L153.42249,-170.11282 L154.68597,-170.12032 L156.1168,-170.1139 L157.70003,-170.1212 L159.41919,-170.11266 L161.25648,-170.12016 L163.19357,-170.11412 L165.21114,-170.12138 L167.28949,-170.11281 L169.40903,-170.1203 L171.54982,-170.11389 L173.69232,-170.12119 L175.81744,-170.11264 L177.90648,-170.12016 L179.94147,-170.11414 L181.90515,-170.1214 L183.78114,-170.11282 L185.55408,-170.12032 L187.20935,-170.11389 L188.73358,-170.1212 L190.1144,-170.11267 L191.34048,-170.12018 L192.40167,-170.11412 L193.28879,-170.12138 L193.99377,-170.11281 L194.5095,-170.12032 L194.83008,-170.11392 L194.95029,-170.12122 L194.866,-170.11264 L194.57413,-170.12015 L194.07379,-170.11414 L193.36757,-170.1214 L192.46121,-170.11281 L191.36328,-170.1203 L190.08475,-170.11386 L188.63889,-170.12115 L187.04065,-170.11264 L185.30649,-170.12016 L183.45425,-170.1141 L181.5022,-170.12137 L179.46965,-170.11278 L177.37619,-170.1203 L175.24173,-170.11394 L173.08595,-170.12123 L170.9285,-170.11266 L168.78839,-170.12016 L166.68434,-170.11414 L164.63441,-170.1214 L162.65576,-170.11282 L160.76474,-170.12032 L158.9768,-170.1139 L157.30658,-170.1212 L155.76736,-170.11266 L154.37158,-170.12016 L153.1305,-170.11412 L152.05429,-170.12138 L151.15218,-170.11281 L150.43224,-170.1203 L149.90147,-170.11389 L149.56601,-170.12119 L149.43083,-170.11264 L149.50012,-170.12016 L149.77701,-170.11414 L150.26236,-170.1214 L150.95363,-170.11282 L151.845,-170.12032 L152.928,-170.11389 L154.19148,-170.1212 L155.62231,-170.11267 L157.20554,-170.12018 L158.9247,-170.11412 L160.762,-170.12138 L162.69908,-170.11281 L164.71664,-170.12032 L166.79501,-170.11392 L168.91455,-170.12122 L171.05533,-170.11264 L173.19781,-170.12015 L175.32294,-170.11414 L177.41197,-170.1214 L179.44696,-170.11281 L181.41064,-170.1203 L183.28664,-170.11386 L185.05957,-170.12115 L186.71484,-170.11264 L188.23907,-170.12016 L189.61989,-170.1141 L190.846,-170.12137 L191.90715,-170.11278 L192.79427,-170.1203 L193.49924,-170.11394 L194.01498,-170.12123 L194.33556,-170.11266 L194.45576,-170.12016 L194.37146,-170.11414 L194.07959,-170.1214 L193.57925,-170.11282 L192.87305,-170.12032 L191.96669,-170.1139 L190.86874,-170.1212 L189.59021,-170.11266 L188.14436,-170.12016 L186.54611,-170.11412 L184.81195,-170.12138 L182.95973,-170.11281 L181.00766,-170.1203 L178.97511,-170.11389 L176.88165,-170.12119 L174.7472,-170.11264 L172.59142,-170.12016 L170.43396,-170.11414 L168.29385,-170.1214 L166.18979,-170.11282 L164.13988,-170.12032 L162.16122,-170.11389 L160.2702,-170.1212 L158.48225,-170.11267 L156.81203,-170.12018 L155.27283,-170.11412 L153.87703,-170.12138 L152.63594,-170.11281 L151.55974,-170.12032 L150.65764,-170.11392 L149.93768,-170.12122 L149.40694,-170.11264 L149.07146,-170.12015 L148.93628,-170.11414 L149.00558,-170.1214 L149.28247,-170.11281 L149.7679,-170.1203 L150.45949,-170.11386 L151.35161,-170.12115 L152.43575,-170.11264 L153.7011,-170.12016 L155.13452,-170.1141 L156.72108,-170.12137 L158.44441,-170.11278 L160.2869,-170.1203 L162.23001,-170.11394 L164.25452,-170.12123 L166.34085,-170.11266 L168.46918,-170.12016 L170.61977,-170.11414 L172.77295,-170.1214 L174.90973,-170.11282 L177.01125,-170.12032 L179.0596,-170.1139 L181.03746,-170.1212 L182.92838,-170.11266 L184.71672,-170.12016 L186.38829,-170.11412 L187.92944,-170.12138 L189.32771,-170.11281 L190.57181,-170.1203 L191.65144,-170.11389 L192.5574,-170.12119 L193.28146,-170.11264 L193.81668,-170.12016 L194.15695,-170.11414 L194.29709,-170.1214 L194.23293,-170.11282 L193.96129,-170.12032 L193.4813,-170.11389 L192.79544,-170.1212 L191.9095,-170.11267 L190.83197,-170.12018 L189.57388,-170.11412 L188.14838,-170.12138 L186.57039,-170.11281 L184.8564,-170.12032 L183.02397,-170.11392 L181.0918,-170.12122 L179.07904,-170.11264 L177.00528,-170.12015 L174.89029,-170.11414 L172.75385,-170.1214 L170.61543,-170.11281 L168.49431,-170.1203 L166.40912,-170.11386 L164.37784,-170.12115 L162.41771,-170.11264" fill="none" stroke="#DD3355" stroke-linejoin="round" stroke-width="2"/>
</g>
</g>
<g>
<g>
<line stroke="black" stroke-width="1" x1="0" x2="0" y1="0" y2="10"/>
<line stroke="black" stroke-width="1" x1="120" x2="120" y1="0" y2="10"/>
<line stroke="black" stroke-width="1" x1="240" x2="240" y1="0" y2="10"/>
<line stroke="black" stroke-width="1" x1="360" x2="360" y1="0" y2="10"/>
<line stroke="black" stroke-width="1" x1="480" x2="480" y1="0" y2="10"/>
</g>
<line stroke="black" stroke-width="1" x1="0" x2="480" y1="0" y2="0"/>
<g>
<text font-size="12" text-anchor="middle" x="0" y="20">
0
</text>
<text font-size="12" text-anchor="middle" x="120" y="20">
40
</text>
<text font-size="12" text-anchor="middle" x="240" y="20">
80
</text>
<text font-size="12" text-anchor="middle" x="360" y="20">
120
</text>
<text font-size="12" text-anchor="middle" x="480" y="20">
160
</text>
</g>
<text font-size="12" text-anchor="middle" x="240" y="30">
Pos X
</text>
</g>
<g>
<g>
<line stroke="black" stroke-width="1" x1="0" x2="-10" y1="-0" y2="-0"/>
<line stroke="black" stroke-width="1" x1="0" x2="-10" y1="-68" y2="-68"/>
<line stroke="black" stroke-width="1" x1="0" x2="-10" y1="-136" y2="-136"/>
<line stroke="black" stroke-width="1" x1="0" x2="-10" y1="-204" y2="-204"/>
<line stroke="black" stroke-width="1" x1="0" x2="-10" y1="-272" y2="-272"/>
<line stroke="black" stroke-width="1" x1="0" x2="-10" y1="-340" y2="-340"/>
</g>
<line stroke="black" stroke-width="1" x1="0" x2="0" y1="0" y2="-340"/>
<g>
<text dominant-baseline="middle" font-size="12" text-anchor="end" x="-15" y="-0">
0
</text>
<text dominant-baseline="middle" font-size="12" text-anchor="end" x="-15" y="-68">
4
</text>
<text dominant-baseline="middle" font-size="12" text-anchor="end" x="-15" y="-136">
8
</text>
<text dominant-baseline="middle" font-size="12" text-anchor="end" x="-15" y="-204">
12
</text>
<text dominant-baseline="middle" font-size="12" text-anchor="end" x="-15" y="-272">
16
</text>
<text dominant-baseline="middle" font-size="12" text-anchor="end" x="-15" y="-340">
20
</text>
</g>
<text font-size="12" text-anchor="middle" transform="rotate(-90 -24 -170)" x="-24" y="-182">
Altitude Z
</text>
</g>
</g>
</svg>